<?xml version="1.0" encoding="utf-8" standalone="no"?>
<!DOCTYPE svg PUBLIC "-//W3C//DTD SVG 1.1//EN"
  "http://www.w3.org/Graphics/SVG/1.1/DTD/svg11.dtd">
<svg xmlns:xlink="http://www.w3.org/1999/xlink" width="504pt" height="108pt" viewBox="0 0 504 108" xmlns="http://www.w3.org/2000/svg" version="1.1">
 <metadata>
  <rdf:RDF xmlns:dc="http://purl.org/dc/elements/1.1/" xmlns:cc="http://creativecommons.org/ns#" xmlns:rdf="http://www.w3.org/1999/02/22-rdf-syntax-ns#">
   <cc:Work>
    <dc:type rdf:resource="http://purl.org/dc/dcmitype/StillImage"/>
    <dc:date>2026-05-15T15:54:43.936140</dc:date>
    <dc:format>image/svg+xml</dc:format>
    <dc:creator>
     <cc:Agent>
      <dc:title>Matplotlib v3.10.9, https://matplotlib.org/</dc:title>
     </cc:Agent>
    </dc:creator>
   </cc:Work>
  </rdf:RDF>
 </metadata>
 <defs>
  <style type="text/css">*{stroke-linejoin: round; stroke-linecap: butt}</style>
 </defs>
 <g id="figure_1">
  <g id="patch_1">
   <path d="M 0 108 
L 504 108 
L 504 0 
L 0 0 
z
" style="fill: #ffffff"/>
  </g>
  <g id="axes_1">
   <g id="patch_2">
    <path d="M 8.64 58.91 
L 495.36 58.91 
L 495.36 8.64 
L 8.64 8.64 
z
" style="fill: #ffffff"/>
   </g>
   <g id="matplotlib.axis_1">
    <g id="xtick_1">
     <g id="text_1">
      <!-- vOffOS -->
      <g style="fill: #da3b3c" transform="translate(20.848125 90.49625) rotate(-90) scale(0.08 -0.08)">
       <defs>
        <path id="ArialMT-76" d="M 1344 0 
L 81 3319 
L 675 3319 
L 1388 1331 
Q 1503 1009 1600 663 
Q 1675 925 1809 1294 
L 2547 3319 
L 3125 3319 
L 1869 0 
L 1344 0 
z
" transform="scale(0.015625)"/>
        <path id="ArialMT-4f" d="M 309 2231 
Q 309 3372 921 4017 
Q 1534 4663 2503 4663 
Q 3138 4663 3647 4359 
Q 4156 4056 4423 3514 
Q 4691 2972 4691 2284 
Q 4691 1588 4409 1038 
Q 4128 488 3612 205 
Q 3097 -78 2500 -78 
Q 1853 -78 1343 234 
Q 834 547 571 1087 
Q 309 1628 309 2231 
z
M 934 2222 
Q 934 1394 1379 917 
Q 1825 441 2497 441 
Q 3181 441 3623 922 
Q 4066 1403 4066 2288 
Q 4066 2847 3877 3264 
Q 3688 3681 3323 3911 
Q 2959 4141 2506 4141 
Q 1863 4141 1398 3698 
Q 934 3256 934 2222 
z
" transform="scale(0.015625)"/>
        <path id="ArialMT-66" d="M 556 0 
L 556 2881 
L 59 2881 
L 59 3319 
L 556 3319 
L 556 3672 
Q 556 4006 616 4169 
Q 697 4388 901 4523 
Q 1106 4659 1475 4659 
Q 1713 4659 2000 4603 
L 1916 4113 
Q 1741 4144 1584 4144 
Q 1328 4144 1222 4034 
Q 1116 3925 1116 3625 
L 1116 3319 
L 1763 3319 
L 1763 2881 
L 1116 2881 
L 1116 0 
L 556 0 
z
" transform="scale(0.015625)"/>
        <path id="ArialMT-53" d="M 288 1472 
L 859 1522 
Q 900 1178 1048 958 
Q 1197 738 1509 602 
Q 1822 466 2213 466 
Q 2559 466 2825 569 
Q 3091 672 3220 851 
Q 3350 1031 3350 1244 
Q 3350 1459 3225 1620 
Q 3100 1781 2813 1891 
Q 2628 1963 1997 2114 
Q 1366 2266 1113 2400 
Q 784 2572 623 2826 
Q 463 3081 463 3397 
Q 463 3744 659 4045 
Q 856 4347 1234 4503 
Q 1613 4659 2075 4659 
Q 2584 4659 2973 4495 
Q 3363 4331 3572 4012 
Q 3781 3694 3797 3291 
L 3216 3247 
Q 3169 3681 2898 3903 
Q 2628 4125 2100 4125 
Q 1550 4125 1298 3923 
Q 1047 3722 1047 3438 
Q 1047 3191 1225 3031 
Q 1400 2872 2139 2705 
Q 2878 2538 3153 2413 
Q 3553 2228 3743 1945 
Q 3934 1663 3934 1294 
Q 3934 928 3725 604 
Q 3516 281 3123 101 
Q 2731 -78 2241 -78 
Q 1619 -78 1198 103 
Q 778 284 539 648 
Q 300 1013 288 1472 
z
" transform="scale(0.015625)"/>
       </defs>
       <use xlink:href="#ArialMT-76"/>
       <use xlink:href="#ArialMT-4f" transform="translate(50 0)"/>
       <use xlink:href="#ArialMT-66" transform="translate(127.783203 0)"/>
       <use xlink:href="#ArialMT-66" transform="translate(153.816406 0)"/>
       <use xlink:href="#ArialMT-4f" transform="translate(181.599609 0)"/>
       <use xlink:href="#ArialMT-53" transform="translate(259.382812 0)"/>
      </g>
     </g>
    </g>
    <g id="xtick_2">
     <g id="text_2">
      <!-- FmOff -->
      <g style="fill: #1b75b0" transform="translate(41.128125 86.4875) rotate(-90) scale(0.08 -0.08)">
       <defs>
        <path id="ArialMT-46" d="M 525 0 
L 525 4581 
L 3616 4581 
L 3616 4041 
L 1131 4041 
L 1131 2622 
L 3281 2622 
L 3281 2081 
L 1131 2081 
L 1131 0 
L 525 0 
z
" transform="scale(0.015625)"/>
        <path id="ArialMT-6d" d="M 422 0 
L 422 3319 
L 925 3319 
L 925 2853 
Q 1081 3097 1340 3245 
Q 1600 3394 1931 3394 
Q 2300 3394 2536 3241 
Q 2772 3088 2869 2813 
Q 3263 3394 3894 3394 
Q 4388 3394 4653 3120 
Q 4919 2847 4919 2278 
L 4919 0 
L 4359 0 
L 4359 2091 
Q 4359 2428 4304 2576 
Q 4250 2725 4106 2815 
Q 3963 2906 3769 2906 
Q 3419 2906 3187 2673 
Q 2956 2441 2956 1928 
L 2956 0 
L 2394 0 
L 2394 2156 
Q 2394 2531 2256 2718 
Q 2119 2906 1806 2906 
Q 1569 2906 1367 2781 
Q 1166 2656 1075 2415 
Q 984 2175 984 1722 
L 984 0 
L 422 0 
z
" transform="scale(0.015625)"/>
       </defs>
       <use xlink:href="#ArialMT-46"/>
       <use xlink:href="#ArialMT-6d" transform="translate(61.083984 0)"/>
       <use xlink:href="#ArialMT-4f" transform="translate(144.384766 0)"/>
       <use xlink:href="#ArialMT-66" transform="translate(222.167969 0)"/>
       <use xlink:href="#ArialMT-66" transform="translate(248.201172 0)"/>
      </g>
     </g>
    </g>
    <g id="xtick_3">
     <g id="text_3">
      <!-- On-s-Off-l -->
      <g style="fill: #ffcad4" transform="translate(61.408125 99.3775) rotate(-90) scale(0.08 -0.08)">
       <defs>
        <path id="ArialMT-6e" d="M 422 0 
L 422 3319 
L 928 3319 
L 928 2847 
Q 1294 3394 1984 3394 
Q 2284 3394 2536 3286 
Q 2788 3178 2913 3003 
Q 3038 2828 3088 2588 
Q 3119 2431 3119 2041 
L 3119 0 
L 2556 0 
L 2556 2019 
Q 2556 2363 2490 2533 
Q 2425 2703 2258 2804 
Q 2091 2906 1866 2906 
Q 1506 2906 1245 2678 
Q 984 2450 984 1813 
L 984 0 
L 422 0 
z
" transform="scale(0.015625)"/>
        <path id="ArialMT-2d" d="M 203 1375 
L 203 1941 
L 1931 1941 
L 1931 1375 
L 203 1375 
z
" transform="scale(0.015625)"/>
        <path id="ArialMT-73" d="M 197 991 
L 753 1078 
Q 800 744 1014 566 
Q 1228 388 1613 388 
Q 2000 388 2187 545 
Q 2375 703 2375 916 
Q 2375 1106 2209 1216 
Q 2094 1291 1634 1406 
Q 1016 1563 777 1677 
Q 538 1791 414 1992 
Q 291 2194 291 2438 
Q 291 2659 392 2848 
Q 494 3038 669 3163 
Q 800 3259 1026 3326 
Q 1253 3394 1513 3394 
Q 1903 3394 2198 3281 
Q 2494 3169 2634 2976 
Q 2775 2784 2828 2463 
L 2278 2388 
Q 2241 2644 2061 2787 
Q 1881 2931 1553 2931 
Q 1166 2931 1000 2803 
Q 834 2675 834 2503 
Q 834 2394 903 2306 
Q 972 2216 1119 2156 
Q 1203 2125 1616 2013 
Q 2213 1853 2448 1751 
Q 2684 1650 2818 1456 
Q 2953 1263 2953 975 
Q 2953 694 2789 445 
Q 2625 197 2315 61 
Q 2006 -75 1616 -75 
Q 969 -75 630 194 
Q 291 463 197 991 
z
" transform="scale(0.015625)"/>
        <path id="ArialMT-6c" d="M 409 0 
L 409 4581 
L 972 4581 
L 972 0 
L 409 0 
z
" transform="scale(0.015625)"/>
       </defs>
       <use xlink:href="#ArialMT-4f"/>
       <use xlink:href="#ArialMT-6e" transform="translate(77.783203 0)"/>
       <use xlink:href="#ArialMT-2d" transform="translate(133.398438 0)"/>
       <use xlink:href="#ArialMT-73" transform="translate(166.699219 0)"/>
       <use xlink:href="#ArialMT-2d" transform="translate(216.699219 0)"/>
       <use xlink:href="#ArialMT-4f" transform="translate(250 0)"/>
       <use xlink:href="#ArialMT-66" transform="translate(327.783203 0)"/>
       <use xlink:href="#ArialMT-66" transform="translate(353.816406 0)"/>
       <use xlink:href="#ArialMT-2d" transform="translate(381.599609 0)"/>
       <use xlink:href="#ArialMT-6c" transform="translate(414.900391 0)"/>
      </g>
     </g>
    </g>
    <g id="xtick_4">
     <g id="text_4">
      <!-- FmOn -->
      <g style="fill: #9bb875" transform="translate(81.688125 86.63125) rotate(-90) scale(0.08 -0.08)">
       <use xlink:href="#ArialMT-46"/>
       <use xlink:href="#ArialMT-6d" transform="translate(61.083984 0)"/>
       <use xlink:href="#ArialMT-4f" transform="translate(144.384766 0)"/>
       <use xlink:href="#ArialMT-6e" transform="translate(222.167969 0)"/>
      </g>
     </g>
    </g>
    <g id="xtick_5">
     <g id="text_5">
      <!-- UHD -->
      <g style="fill: #f0a74e" transform="translate(101.968125 81.7425) rotate(-90) scale(0.08 -0.08)">
       <defs>
        <path id="ArialMT-55" d="M 3500 4581 
L 4106 4581 
L 4106 1934 
Q 4106 1244 3950 837 
Q 3794 431 3386 176 
Q 2978 -78 2316 -78 
Q 1672 -78 1262 144 
Q 853 366 678 786 
Q 503 1206 503 1934 
L 503 4581 
L 1109 4581 
L 1109 1938 
Q 1109 1341 1220 1058 
Q 1331 775 1601 622 
Q 1872 469 2263 469 
Q 2931 469 3215 772 
Q 3500 1075 3500 1938 
L 3500 4581 
z
" transform="scale(0.015625)"/>
        <path id="ArialMT-48" d="M 513 0 
L 513 4581 
L 1119 4581 
L 1119 2700 
L 3500 2700 
L 3500 4581 
L 4106 4581 
L 4106 0 
L 3500 0 
L 3500 2159 
L 1119 2159 
L 1119 0 
L 513 0 
z
" transform="scale(0.015625)"/>
        <path id="ArialMT-44" d="M 494 0 
L 494 4581 
L 2072 4581 
Q 2606 4581 2888 4516 
Q 3281 4425 3559 4188 
Q 3922 3881 4101 3404 
Q 4281 2928 4281 2316 
Q 4281 1794 4159 1391 
Q 4038 988 3847 723 
Q 3656 459 3429 307 
Q 3203 156 2883 78 
Q 2563 0 2147 0 
L 494 0 
z
M 1100 541 
L 2078 541 
Q 2531 541 2789 625 
Q 3047 709 3200 863 
Q 3416 1078 3536 1442 
Q 3656 1806 3656 2325 
Q 3656 3044 3420 3430 
Q 3184 3816 2847 3947 
Q 2603 4041 2063 4041 
L 1100 4041 
L 1100 541 
z
" transform="scale(0.015625)"/>
       </defs>
       <use xlink:href="#ArialMT-55"/>
       <use xlink:href="#ArialMT-48" transform="translate(72.216797 0)"/>
       <use xlink:href="#ArialMT-44" transform="translate(144.433594 0)"/>
      </g>
     </g>
    </g>
    <g id="xtick_6">
     <g id="text_6">
      <!-- HD2 -->
      <g style="fill: #e0523b" transform="translate(122.248125 80.41375) rotate(-90) scale(0.08 -0.08)">
       <defs>
        <path id="ArialMT-32" d="M 3222 541 
L 3222 0 
L 194 0 
Q 188 203 259 391 
Q 375 700 629 1000 
Q 884 1300 1366 1694 
Q 2113 2306 2375 2664 
Q 2638 3022 2638 3341 
Q 2638 3675 2398 3904 
Q 2159 4134 1775 4134 
Q 1369 4134 1125 3890 
Q 881 3647 878 3216 
L 300 3275 
Q 359 3922 746 4261 
Q 1134 4600 1788 4600 
Q 2447 4600 2831 4234 
Q 3216 3869 3216 3328 
Q 3216 3053 3103 2787 
Q 2991 2522 2730 2228 
Q 2469 1934 1863 1422 
Q 1356 997 1212 845 
Q 1069 694 975 541 
L 3222 541 
z
" transform="scale(0.015625)"/>
       </defs>
       <use xlink:href="#ArialMT-48"/>
       <use xlink:href="#ArialMT-44" transform="translate(72.216797 0)"/>
       <use xlink:href="#ArialMT-32" transform="translate(144.433594 0)"/>
      </g>
     </g>
    </g>
    <g id="xtick_7">
     <g id="text_7">
      <!-- HD1 -->
      <g style="fill: #0e7b65" transform="translate(142.528125 80.41375) rotate(-90) scale(0.08 -0.08)">
       <defs>
        <path id="ArialMT-31" d="M 2384 0 
L 1822 0 
L 1822 3584 
Q 1619 3391 1289 3197 
Q 959 3003 697 2906 
L 697 3450 
Q 1169 3672 1522 3987 
Q 1875 4303 2022 4600 
L 2384 4600 
L 2384 0 
z
" transform="scale(0.015625)"/>
       </defs>
       <use xlink:href="#ArialMT-48"/>
       <use xlink:href="#ArialMT-44" transform="translate(72.216797 0)"/>
       <use xlink:href="#ArialMT-31" transform="translate(144.433594 0)"/>
      </g>
     </g>
    </g>
    <g id="xtick_8">
     <g id="text_8">
      <!-- LED -->
      <g style="fill: #ecbacd" transform="translate(162.808125 79.9725) rotate(-90) scale(0.08 -0.08)">
       <defs>
        <path id="ArialMT-4c" d="M 469 0 
L 469 4581 
L 1075 4581 
L 1075 541 
L 3331 541 
L 3331 0 
L 469 0 
z
" transform="scale(0.015625)"/>
        <path id="ArialMT-45" d="M 506 0 
L 506 4581 
L 3819 4581 
L 3819 4041 
L 1113 4041 
L 1113 2638 
L 3647 2638 
L 3647 2100 
L 1113 2100 
L 1113 541 
L 3925 541 
L 3925 0 
L 506 0 
z
" transform="scale(0.015625)"/>
       </defs>
       <use xlink:href="#ArialMT-4c"/>
       <use xlink:href="#ArialMT-45" transform="translate(55.615234 0)"/>
       <use xlink:href="#ArialMT-44" transform="translate(122.314453 0)"/>
      </g>
     </g>
    </g>
    <g id="xtick_9">
     <g id="text_9">
      <!-- tOn-m -->
      <g style="fill: #617fb9" transform="translate(183.088125 86.63125) rotate(-90) scale(0.08 -0.08)">
       <defs>
        <path id="ArialMT-74" d="M 1650 503 
L 1731 6 
Q 1494 -44 1306 -44 
Q 1000 -44 831 53 
Q 663 150 594 308 
Q 525 466 525 972 
L 525 2881 
L 113 2881 
L 113 3319 
L 525 3319 
L 525 4141 
L 1084 4478 
L 1084 3319 
L 1650 3319 
L 1650 2881 
L 1084 2881 
L 1084 941 
Q 1084 700 1114 631 
Q 1144 563 1211 522 
Q 1278 481 1403 481 
Q 1497 481 1650 503 
z
" transform="scale(0.015625)"/>
       </defs>
       <use xlink:href="#ArialMT-74"/>
       <use xlink:href="#ArialMT-4f" transform="translate(27.783203 0)"/>
       <use xlink:href="#ArialMT-6e" transform="translate(105.566406 0)"/>
       <use xlink:href="#ArialMT-2d" transform="translate(161.181641 0)"/>
       <use xlink:href="#ArialMT-6d" transform="translate(194.482422 0)"/>
      </g>
     </g>
    </g>
    <g id="xtick_10">
     <g id="text_10">
      <!-- tOn-s -->
      <g style="fill: #edb962" transform="translate(203.368125 83.9675) rotate(-90) scale(0.08 -0.08)">
       <use xlink:href="#ArialMT-74"/>
       <use xlink:href="#ArialMT-4f" transform="translate(27.783203 0)"/>
       <use xlink:href="#ArialMT-6e" transform="translate(105.566406 0)"/>
       <use xlink:href="#ArialMT-2d" transform="translate(161.181641 0)"/>
       <use xlink:href="#ArialMT-73" transform="translate(194.482422 0)"/>
      </g>
     </g>
    </g>
    <g id="xtick_11">
     <g id="text_11">
      <!-- tOff-m -->
      <g style="fill: #e76839" transform="translate(223.648125 86.4875) rotate(-90) scale(0.08 -0.08)">
       <use xlink:href="#ArialMT-74"/>
       <use xlink:href="#ArialMT-4f" transform="translate(27.783203 0)"/>
       <use xlink:href="#ArialMT-66" transform="translate(105.566406 0)"/>
       <use xlink:href="#ArialMT-66" transform="translate(131.599609 0)"/>
       <use xlink:href="#ArialMT-2d" transform="translate(159.382812 0)"/>
       <use xlink:href="#ArialMT-6d" transform="translate(192.683594 0)"/>
      </g>
     </g>
    </g>
    <g id="xtick_12">
     <g id="text_12">
      <!-- tOff-s -->
      <g style="fill: #29885f" transform="translate(243.928125 83.82375) rotate(-90) scale(0.08 -0.08)">
       <use xlink:href="#ArialMT-74"/>
       <use xlink:href="#ArialMT-4f" transform="translate(27.783203 0)"/>
       <use xlink:href="#ArialMT-66" transform="translate(105.566406 0)"/>
       <use xlink:href="#ArialMT-66" transform="translate(131.599609 0)"/>
       <use xlink:href="#ArialMT-2d" transform="translate(159.382812 0)"/>
       <use xlink:href="#ArialMT-73" transform="translate(192.683594 0)"/>
      </g>
     </g>
    </g>
    <g id="xtick_13">
     <g id="text_13">
      <!-- M5 -->
      <g style="fill: #c69abe" transform="translate(264.208125 75.5225) rotate(-90) scale(0.08 -0.08)">
       <defs>
        <path id="ArialMT-4d" d="M 475 0 
L 475 4581 
L 1388 4581 
L 2472 1338 
Q 2622 884 2691 659 
Q 2769 909 2934 1394 
L 4031 4581 
L 4847 4581 
L 4847 0 
L 4263 0 
L 4263 3834 
L 2931 0 
L 2384 0 
L 1059 3900 
L 1059 0 
L 475 0 
z
" transform="scale(0.015625)"/>
        <path id="ArialMT-35" d="M 266 1200 
L 856 1250 
Q 922 819 1161 601 
Q 1400 384 1738 384 
Q 2144 384 2425 690 
Q 2706 997 2706 1503 
Q 2706 1984 2436 2262 
Q 2166 2541 1728 2541 
Q 1456 2541 1237 2417 
Q 1019 2294 894 2097 
L 366 2166 
L 809 4519 
L 3088 4519 
L 3088 3981 
L 1259 3981 
L 1013 2750 
Q 1425 3038 1878 3038 
Q 2478 3038 2890 2622 
Q 3303 2206 3303 1553 
Q 3303 931 2941 478 
Q 2500 -78 1738 -78 
Q 1113 -78 717 272 
Q 322 622 266 1200 
z
" transform="scale(0.015625)"/>
       </defs>
       <use xlink:href="#ArialMT-4d"/>
       <use xlink:href="#ArialMT-35" transform="translate(83.300781 0)"/>
      </g>
     </g>
    </g>
    <g id="xtick_14">
     <g id="text_14">
      <!-- M6 -->
      <g style="fill: #3a79b9" transform="translate(284.488125 75.5225) rotate(-90) scale(0.08 -0.08)">
       <defs>
        <path id="ArialMT-36" d="M 3184 3459 
L 2625 3416 
Q 2550 3747 2413 3897 
Q 2184 4138 1850 4138 
Q 1581 4138 1378 3988 
Q 1113 3794 959 3422 
Q 806 3050 800 2363 
Q 1003 2672 1297 2822 
Q 1591 2972 1913 2972 
Q 2475 2972 2870 2558 
Q 3266 2144 3266 1488 
Q 3266 1056 3080 686 
Q 2894 316 2569 119 
Q 2244 -78 1831 -78 
Q 1128 -78 684 439 
Q 241 956 241 2144 
Q 241 3472 731 4075 
Q 1159 4600 1884 4600 
Q 2425 4600 2770 4297 
Q 3116 3994 3184 3459 
z
M 888 1484 
Q 888 1194 1011 928 
Q 1134 663 1356 523 
Q 1578 384 1822 384 
Q 2178 384 2434 671 
Q 2691 959 2691 1453 
Q 2691 1928 2437 2201 
Q 2184 2475 1800 2475 
Q 1419 2475 1153 2201 
Q 888 1928 888 1484 
z
" transform="scale(0.015625)"/>
       </defs>
       <use xlink:href="#ArialMT-4d"/>
       <use xlink:href="#ArialMT-36" transform="translate(83.300781 0)"/>
      </g>
     </g>
    </g>
    <g id="xtick_15">
     <g id="text_15">
      <!-- OODS -->
      <g style="fill: #ebcc76" transform="translate(304.768125 87.96875) rotate(-90) scale(0.08 -0.08)">
       <use xlink:href="#ArialMT-4f"/>
       <use xlink:href="#ArialMT-4f" transform="translate(77.783203 0)"/>
       <use xlink:href="#ArialMT-44" transform="translate(155.566406 0)"/>
       <use xlink:href="#ArialMT-53" transform="translate(227.783203 0)"/>
      </g>
     </g>
    </g>
    <g id="xtick_16">
     <g id="text_16">
      <!-- sOff-a -->
      <g style="fill: #ed7f38" transform="translate(325.048125 86.05) rotate(-90) scale(0.08 -0.08)">
       <defs>
        <path id="ArialMT-61" d="M 2588 409 
Q 2275 144 1986 34 
Q 1697 -75 1366 -75 
Q 819 -75 525 192 
Q 231 459 231 875 
Q 231 1119 342 1320 
Q 453 1522 633 1644 
Q 813 1766 1038 1828 
Q 1203 1872 1538 1913 
Q 2219 1994 2541 2106 
Q 2544 2222 2544 2253 
Q 2544 2597 2384 2738 
Q 2169 2928 1744 2928 
Q 1347 2928 1158 2789 
Q 969 2650 878 2297 
L 328 2372 
Q 403 2725 575 2942 
Q 747 3159 1072 3276 
Q 1397 3394 1825 3394 
Q 2250 3394 2515 3294 
Q 2781 3194 2906 3042 
Q 3031 2891 3081 2659 
Q 3109 2516 3109 2141 
L 3109 1391 
Q 3109 606 3145 398 
Q 3181 191 3288 0 
L 2700 0 
Q 2613 175 2588 409 
z
M 2541 1666 
Q 2234 1541 1622 1453 
Q 1275 1403 1131 1340 
Q 988 1278 909 1158 
Q 831 1038 831 891 
Q 831 666 1001 516 
Q 1172 366 1500 366 
Q 1825 366 2078 508 
Q 2331 650 2450 897 
Q 2541 1088 2541 1459 
L 2541 1666 
z
" transform="scale(0.015625)"/>
       </defs>
       <use xlink:href="#ArialMT-73"/>
       <use xlink:href="#ArialMT-4f" transform="translate(50 0)"/>
       <use xlink:href="#ArialMT-66" transform="translate(127.783203 0)"/>
       <use xlink:href="#ArialMT-66" transform="translate(153.816406 0)"/>
       <use xlink:href="#ArialMT-2d" transform="translate(181.599609 0)"/>
       <use xlink:href="#ArialMT-61" transform="translate(214.900391 0)"/>
      </g>
     </g>
    </g>
    <g id="xtick_17">
     <g id="text_17">
      <!-- sOff-m -->
      <g style="fill: #62a06a" transform="translate(345.328125 88.265) rotate(-90) scale(0.08 -0.08)">
       <use xlink:href="#ArialMT-73"/>
       <use xlink:href="#ArialMT-4f" transform="translate(50 0)"/>
       <use xlink:href="#ArialMT-66" transform="translate(127.783203 0)"/>
       <use xlink:href="#ArialMT-66" transform="translate(153.816406 0)"/>
       <use xlink:href="#ArialMT-2d" transform="translate(181.599609 0)"/>
       <use xlink:href="#ArialMT-6d" transform="translate(214.900391 0)"/>
      </g>
     </g>
    </g>
    <g id="xtick_18">
     <g id="text_18">
      <!-- M1 -->
      <g style="fill: #b18bb8" transform="translate(365.608125 75.5225) rotate(-90) scale(0.08 -0.08)">
       <use xlink:href="#ArialMT-4d"/>
       <use xlink:href="#ArialMT-31" transform="translate(83.300781 0)"/>
      </g>
     </g>
    </g>
    <g id="xtick_19">
     <g id="text_19">
      <!-- sOn-a -->
      <g style="fill: #177797" transform="translate(385.888125 86.19375) rotate(-90) scale(0.08 -0.08)">
       <use xlink:href="#ArialMT-73"/>
       <use xlink:href="#ArialMT-4f" transform="translate(50 0)"/>
       <use xlink:href="#ArialMT-6e" transform="translate(127.783203 0)"/>
       <use xlink:href="#ArialMT-2d" transform="translate(183.398438 0)"/>
       <use xlink:href="#ArialMT-61" transform="translate(216.699219 0)"/>
      </g>
     </g>
    </g>
    <g id="xtick_20">
     <g id="text_20">
      <!-- tOff-a -->
      <g style="fill: #d4d081" transform="translate(406.168125 84.2725) rotate(-90) scale(0.08 -0.08)">
       <use xlink:href="#ArialMT-74"/>
       <use xlink:href="#ArialMT-4f" transform="translate(27.783203 0)"/>
       <use xlink:href="#ArialMT-66" transform="translate(105.566406 0)"/>
       <use xlink:href="#ArialMT-66" transform="translate(131.599609 0)"/>
       <use xlink:href="#ArialMT-2d" transform="translate(159.382812 0)"/>
       <use xlink:href="#ArialMT-61" transform="translate(192.683594 0)"/>
      </g>
     </g>
    </g>
    <g id="xtick_21">
     <g id="text_21">
      <!-- M2 -->
      <g style="fill: #f3953a" transform="translate(426.448125 75.5225) rotate(-90) scale(0.08 -0.08)">
       <use xlink:href="#ArialMT-4d"/>
       <use xlink:href="#ArialMT-32" transform="translate(83.300781 0)"/>
      </g>
     </g>
    </g>
    <g id="xtick_22">
     <g id="text_22">
      <!-- sOnDS -->
      <g style="fill: #d9aac6" transform="translate(446.728125 90.195) rotate(-90) scale(0.08 -0.08)">
       <use xlink:href="#ArialMT-73"/>
       <use xlink:href="#ArialMT-4f" transform="translate(50 0)"/>
       <use xlink:href="#ArialMT-6e" transform="translate(127.783203 0)"/>
       <use xlink:href="#ArialMT-44" transform="translate(183.398438 0)"/>
       <use xlink:href="#ArialMT-53" transform="translate(255.615234 0)"/>
      </g>
     </g>
    </g>
    <g id="xtick_23">
     <g id="text_23">
      <!-- OnOS-s -->
      <g style="fill: #8985b8" transform="translate(467.008125 93.30375) rotate(-90) scale(0.08 -0.08)">
       <use xlink:href="#ArialMT-4f"/>
       <use xlink:href="#ArialMT-6e" transform="translate(77.783203 0)"/>
       <use xlink:href="#ArialMT-4f" transform="translate(133.398438 0)"/>
       <use xlink:href="#ArialMT-53" transform="translate(211.181641 0)"/>
       <use xlink:href="#ArialMT-2d" transform="translate(277.880859 0)"/>
       <use xlink:href="#ArialMT-73" transform="translate(311.181641 0)"/>
      </g>
     </g>
    </g>
    <g id="xtick_24">
     <g id="text_24">
      <!-- vOnOS-s -->
      <g style="fill: #13797e" transform="translate(487.288125 97.30375) rotate(-90) scale(0.08 -0.08)">
       <use xlink:href="#ArialMT-76"/>
       <use xlink:href="#ArialMT-4f" transform="translate(50 0)"/>
       <use xlink:href="#ArialMT-6e" transform="translate(127.783203 0)"/>
       <use xlink:href="#ArialMT-4f" transform="translate(183.398438 0)"/>
       <use xlink:href="#ArialMT-53" transform="translate(261.181641 0)"/>
       <use xlink:href="#ArialMT-2d" transform="translate(327.880859 0)"/>
       <use xlink:href="#ArialMT-73" transform="translate(361.181641 0)"/>
      </g>
     </g>
    </g>
   </g>
   <g id="matplotlib.axis_2"/>
   <g id="LineCollection_1">
    <path d="M 140.46 58.91 
L 140.46 46.226669 
L 160.74 46.226669 
L 160.74 58.91 
" clip-path="url(#p9cecea4af1)" style="fill: none; stroke: #808080; stroke-width: 1.2"/>
    <path d="M 120.18 58.91 
L 120.18 43.02674 
L 150.6 43.02674 
L 150.6 46.226669 
" clip-path="url(#p9cecea4af1)" style="fill: none; stroke: #808080; stroke-width: 1.2"/>
    <path d="M 99.9 58.91 
L 99.9 37.514387 
L 135.39 37.514387 
L 135.39 43.02674 
" clip-path="url(#p9cecea4af1)" style="fill: none; stroke: #808080; stroke-width: 1.2"/>
    <path d="M 79.62 58.91 
L 79.62 35.997429 
L 117.645 35.997429 
L 117.645 37.514387 
" clip-path="url(#p9cecea4af1)" style="fill: none; stroke: #808080; stroke-width: 1.2"/>
    <path d="M 59.34 58.91 
L 59.34 31.903258 
L 98.6325 31.903258 
L 98.6325 35.997429 
" clip-path="url(#p9cecea4af1)" style="fill: none; stroke: #808080; stroke-width: 1.2"/>
    <path d="M 39.06 58.91 
L 39.06 26.444369 
L 78.98625 26.444369 
L 78.98625 31.903258 
" clip-path="url(#p9cecea4af1)" style="fill: none; stroke: #808080; stroke-width: 1.2"/>
    <path d="M 181.02 58.91 
L 181.02 40.339324 
L 201.3 40.339324 
L 201.3 58.91 
" clip-path="url(#p9cecea4af1)" style="fill: none; stroke: #808080; stroke-width: 1.2"/>
    <path d="M 221.58 58.91 
L 221.58 43.963882 
L 241.86 43.963882 
L 241.86 58.91 
" clip-path="url(#p9cecea4af1)" style="fill: none; stroke: #808080; stroke-width: 1.2"/>
    <path d="M 262.14 58.91 
L 262.14 41.547402 
L 282.42 41.547402 
L 282.42 58.91 
" clip-path="url(#p9cecea4af1)" style="fill: none; stroke: #808080; stroke-width: 1.2"/>
    <path d="M 322.98 58.91 
L 322.98 45.473473 
L 343.26 45.473473 
L 343.26 58.91 
" clip-path="url(#p9cecea4af1)" style="fill: none; stroke: #808080; stroke-width: 1.2"/>
    <path d="M 302.7 58.91 
L 302.7 33.495445 
L 333.12 33.495445 
L 333.12 45.473473 
" clip-path="url(#p9cecea4af1)" style="fill: none; stroke: #808080; stroke-width: 1.2"/>
    <path d="M 272.28 41.547402 
L 272.28 32.031275 
L 317.91 32.031275 
L 317.91 33.495445 
" clip-path="url(#p9cecea4af1)" style="fill: none; stroke: #808080; stroke-width: 1.2"/>
    <path d="M 231.72 43.963882 
L 231.72 28.033059 
L 295.095 28.033059 
L 295.095 32.031275 
" clip-path="url(#p9cecea4af1)" style="fill: none; stroke: #808080; stroke-width: 1.2"/>
    <path d="M 191.16 40.339324 
L 191.16 25.973059 
L 263.4075 25.973059 
L 263.4075 28.033059 
" clip-path="url(#p9cecea4af1)" style="fill: none; stroke: #808080; stroke-width: 1.2"/>
    <path d="M 59.023125 26.444369 
L 59.023125 24.477851 
L 227.28375 24.477851 
L 227.28375 25.973059 
" clip-path="url(#p9cecea4af1)" style="fill: none; stroke: #808080; stroke-width: 1.2"/>
    <path d="M 383.82 58.91 
L 383.82 26.425161 
L 404.1 26.425161 
L 404.1 58.91 
" clip-path="url(#p9cecea4af1)" style="fill: none; stroke: #808080; stroke-width: 1.2"/>
    <path d="M 464.94 58.91 
L 464.94 33.519285 
L 485.22 33.519285 
L 485.22 58.91 
" clip-path="url(#p9cecea4af1)" style="fill: none; stroke: #808080; stroke-width: 1.2"/>
    <path d="M 444.66 58.91 
L 444.66 24.851729 
L 475.08 24.851729 
L 475.08 33.519285 
" clip-path="url(#p9cecea4af1)" style="fill: none; stroke: #808080; stroke-width: 1.2"/>
    <path d="M 424.38 58.91 
L 424.38 19.898271 
L 459.87 19.898271 
L 459.87 24.851729 
" clip-path="url(#p9cecea4af1)" style="fill: none; stroke: #808080; stroke-width: 1.2"/>
    <path d="M 393.96 26.425161 
L 393.96 17.525588 
L 442.125 17.525588 
L 442.125 19.898271 
" clip-path="url(#p9cecea4af1)" style="fill: none; stroke: #808080; stroke-width: 1.2"/>
    <path d="M 363.54 58.91 
L 363.54 14.622772 
L 418.0425 14.622772 
L 418.0425 17.525588 
" clip-path="url(#p9cecea4af1)" style="fill: none; stroke: #808080; stroke-width: 1.2"/>
    <path d="M 143.153437 24.477851 
L 143.153437 12.770537 
L 390.79125 12.770537 
L 390.79125 14.622772 
" clip-path="url(#p9cecea4af1)" style="fill: none; stroke: #808080; stroke-width: 1.2"/>
    <path d="M 18.78 58.91 
L 18.78 11.03381 
L 266.972344 11.03381 
L 266.972344 12.770537 
" clip-path="url(#p9cecea4af1)" style="fill: none; stroke: #808080; stroke-width: 1.2"/>
   </g>
  </g>
 </g>
 <defs>
  <clipPath id="p9cecea4af1">
   <rect x="8.64" y="8.64" width="486.72" height="50.27"/>
  </clipPath>
 </defs>
</svg>
