<?xml version="1.0" encoding="utf-8" standalone="no"?>
<!DOCTYPE svg PUBLIC "-//W3C//DTD SVG 1.1//EN"
  "http://www.w3.org/Graphics/SVG/1.1/DTD/svg11.dtd">
<svg xmlns:xlink="http://www.w3.org/1999/xlink" width="360pt" height="216pt" viewBox="0 0 360 216" xmlns="http://www.w3.org/2000/svg" version="1.1">
 <metadata>
  <rdf:RDF xmlns:dc="http://purl.org/dc/elements/1.1/" xmlns:cc="http://creativecommons.org/ns#" xmlns:rdf="http://www.w3.org/1999/02/22-rdf-syntax-ns#">
   <cc:Work>
    <dc:type rdf:resource="http://purl.org/dc/dcmitype/StillImage"/>
    <dc:date>2026-05-29T12:15:03.338854</dc:date>
    <dc:format>image/svg+xml</dc:format>
    <dc:creator>
     <cc:Agent>
      <dc:title>Matplotlib v3.10.9, https://matplotlib.org/</dc:title>
     </cc:Agent>
    </dc:creator>
   </cc:Work>
  </rdf:RDF>
 </metadata>
 <defs>
  <style type="text/css">*{stroke-linejoin: round; stroke-linecap: butt}</style>
 </defs>
 <g id="figure_1">
  <g id="patch_1">
   <path d="M 0 216 
L 360 216 
L 360 0 
L 0 0 
z
" style="fill: #ffffff"/>
  </g>
  <g id="axes_1">
   <g id="patch_2">
    <path d="M 57.17 174.04 
L 349.2 174.04 
L 349.2 11.941239 
L 57.17 11.941239 
z
" style="fill: #ffffff"/>
   </g>
   <g id="patch_3">
    <path d="M 70.444091 174.04 
L 75.500887 174.04 
L 75.500887 173.912519 
L 70.444091 173.912519 
z
" clip-path="url(#p4628394078)" style="fill: #da3b3c"/>
   </g>
   <g id="patch_4">
    <path d="M 70.444091 173.912519 
L 75.500887 173.912519 
L 75.500887 173.02015 
L 70.444091 173.02015 
z
" clip-path="url(#p4628394078)" style="fill: #b1def2"/>
   </g>
   <g id="patch_5">
    <path d="M 70.444091 173.02015 
L 75.500887 173.02015 
L 75.500887 172.0003 
L 70.444091 172.0003 
z
" clip-path="url(#p4628394078)" style="fill: #32a9de"/>
   </g>
   <g id="patch_6">
    <path d="M 70.444091 172.0003 
L 75.500887 172.0003 
L 75.500887 170.279304 
L 70.444091 170.279304 
z
" clip-path="url(#p4628394078)" style="fill: #1d74b9"/>
   </g>
   <g id="patch_7">
    <path d="M 70.444091 170.279304 
L 75.500887 170.279304 
L 75.500887 23.261572 
L 70.444091 23.261572 
z
" clip-path="url(#p4628394078)" style="fill: #109e71"/>
   </g>
   <g id="patch_8">
    <path d="M 85.614481 174.04 
L 96.044123 174.04 
L 96.044123 171.394764 
L 85.614481 171.394764 
z
" clip-path="url(#p4628394078)" style="fill: #da3b3c"/>
   </g>
   <g id="patch_9">
    <path d="M 96.044123 174.04 
L 106.473766 174.04 
L 106.473766 168.813269 
L 96.044123 168.813269 
z
" clip-path="url(#p4628394078)" style="fill: #da3b3c"/>
   </g>
   <g id="patch_10">
    <path d="M 106.473766 174.04 
L 116.903409 174.04 
L 116.903409 167.347235 
L 106.473766 167.347235 
z
" clip-path="url(#p4628394078)" style="fill: #da3b3c"/>
   </g>
   <g id="patch_11">
    <path d="M 116.903409 174.04 
L 127.333052 174.04 
L 127.333052 166.77357 
L 116.903409 166.77357 
z
" clip-path="url(#p4628394078)" style="fill: #da3b3c"/>
   </g>
   <g id="patch_12">
    <path d="M 127.333052 174.04 
L 137.762695 174.04 
L 137.762695 166.80544 
L 127.333052 166.80544 
z
" clip-path="url(#p4628394078)" style="fill: #da3b3c"/>
   </g>
   <g id="patch_13">
    <path d="M 137.762695 174.04 
L 148.192338 174.04 
L 148.192338 166.295515 
L 137.762695 166.295515 
z
" clip-path="url(#p4628394078)" style="fill: #da3b3c"/>
   </g>
   <g id="patch_14">
    <path d="M 148.192338 174.04 
L 158.621981 174.04 
L 158.621981 166.80544 
L 148.192338 166.80544 
z
" clip-path="url(#p4628394078)" style="fill: #da3b3c"/>
   </g>
   <g id="patch_15">
    <path d="M 158.621981 174.04 
L 169.051623 174.04 
L 169.051623 167.028532 
L 158.621981 167.028532 
z
" clip-path="url(#p4628394078)" style="fill: #da3b3c"/>
   </g>
   <g id="patch_16">
    <path d="M 169.051623 174.04 
L 179.481266 174.04 
L 179.481266 165.371276 
L 169.051623 165.371276 
z
" clip-path="url(#p4628394078)" style="fill: #da3b3c"/>
   </g>
   <g id="patch_17">
    <path d="M 179.481266 174.04 
L 189.910909 174.04 
L 189.910909 167.984641 
L 179.481266 167.984641 
z
" clip-path="url(#p4628394078)" style="fill: #da3b3c"/>
   </g>
   <g id="patch_18">
    <path d="M 189.910909 174.04 
L 200.340552 174.04 
L 200.340552 168.430826 
L 189.910909 168.430826 
z
" clip-path="url(#p4628394078)" style="fill: #da3b3c"/>
   </g>
   <g id="patch_19">
    <path d="M 200.340552 174.04 
L 210.770195 174.04 
L 210.770195 168.940751 
L 200.340552 168.940751 
z
" clip-path="url(#p4628394078)" style="fill: #da3b3c"/>
   </g>
   <g id="patch_20">
    <path d="M 210.770195 174.04 
L 221.199838 174.04 
L 221.199838 168.87701 
L 210.770195 168.87701 
z
" clip-path="url(#p4628394078)" style="fill: #da3b3c"/>
   </g>
   <g id="patch_21">
    <path d="M 221.199838 174.04 
L 231.629481 174.04 
L 231.629481 170.119952 
L 221.199838 170.119952 
z
" clip-path="url(#p4628394078)" style="fill: #da3b3c"/>
   </g>
   <g id="patch_22">
    <path d="M 231.629481 174.04 
L 242.059123 174.04 
L 242.059123 170.629877 
L 231.629481 170.629877 
z
" clip-path="url(#p4628394078)" style="fill: #da3b3c"/>
   </g>
   <g id="patch_23">
    <path d="M 242.059123 174.04 
L 252.488766 174.04 
L 252.488766 170.374915 
L 242.059123 170.374915 
z
" clip-path="url(#p4628394078)" style="fill: #da3b3c"/>
   </g>
   <g id="patch_24">
    <path d="M 252.488766 174.04 
L 262.918409 174.04 
L 262.918409 170.406785 
L 252.488766 170.406785 
z
" clip-path="url(#p4628394078)" style="fill: #da3b3c"/>
   </g>
   <g id="patch_25">
    <path d="M 262.918409 174.04 
L 273.348052 174.04 
L 273.348052 171.426635 
L 262.918409 171.426635 
z
" clip-path="url(#p4628394078)" style="fill: #da3b3c"/>
   </g>
   <g id="patch_26">
    <path d="M 273.348052 174.04 
L 283.777695 174.04 
L 283.777695 171.713468 
L 273.348052 171.713468 
z
" clip-path="url(#p4628394078)" style="fill: #da3b3c"/>
   </g>
   <g id="patch_27">
    <path d="M 283.777695 174.04 
L 294.207338 174.04 
L 294.207338 171.809078 
L 283.777695 171.809078 
z
" clip-path="url(#p4628394078)" style="fill: #da3b3c"/>
   </g>
   <g id="patch_28">
    <path d="M 294.207338 174.04 
L 304.636981 174.04 
L 304.636981 171.840949 
L 294.207338 171.840949 
z
" clip-path="url(#p4628394078)" style="fill: #da3b3c"/>
   </g>
   <g id="patch_29">
    <path d="M 304.636981 174.04 
L 315.066623 174.04 
L 315.066623 172.127782 
L 304.636981 172.127782 
z
" clip-path="url(#p4628394078)" style="fill: #da3b3c"/>
   </g>
   <g id="patch_30">
    <path d="M 315.066623 174.04 
L 325.496266 174.04 
L 325.496266 172.350874 
L 315.066623 172.350874 
z
" clip-path="url(#p4628394078)" style="fill: #da3b3c"/>
   </g>
   <g id="patch_31">
    <path d="M 325.496266 174.04 
L 335.925909 174.04 
L 335.925909 171.93656 
L 325.496266 171.93656 
z
" clip-path="url(#p4628394078)" style="fill: #da3b3c"/>
   </g>
   <g id="patch_32">
    <path d="M 85.614481 171.394764 
L 96.044123 171.394764 
L 96.044123 160.144546 
L 85.614481 160.144546 
z
" clip-path="url(#p4628394078)" style="fill: #b1def2"/>
   </g>
   <g id="patch_33">
    <path d="M 96.044123 168.813269 
L 106.473766 168.813269 
L 106.473766 161.132525 
L 96.044123 161.132525 
z
" clip-path="url(#p4628394078)" style="fill: #b1def2"/>
   </g>
   <g id="patch_34">
    <path d="M 106.473766 167.347235 
L 116.903409 167.347235 
L 116.903409 159.379658 
L 106.473766 159.379658 
z
" clip-path="url(#p4628394078)" style="fill: #b1def2"/>
   </g>
   <g id="patch_35">
    <path d="M 116.903409 166.77357 
L 127.333052 166.77357 
L 127.333052 159.921453 
L 116.903409 159.921453 
z
" clip-path="url(#p4628394078)" style="fill: #b1def2"/>
   </g>
   <g id="patch_36">
    <path d="M 127.333052 166.80544 
L 137.762695 166.80544 
L 137.762695 161.164396 
L 127.333052 161.164396 
z
" clip-path="url(#p4628394078)" style="fill: #b1def2"/>
   </g>
   <g id="patch_37">
    <path d="M 137.762695 166.295515 
L 148.192338 166.295515 
L 148.192338 160.813822 
L 137.762695 160.813822 
z
" clip-path="url(#p4628394078)" style="fill: #b1def2"/>
   </g>
   <g id="patch_38">
    <path d="M 148.192338 166.80544 
L 158.621981 166.80544 
L 158.621981 162.120505 
L 148.192338 162.120505 
z
" clip-path="url(#p4628394078)" style="fill: #b1def2"/>
   </g>
   <g id="patch_39">
    <path d="M 158.621981 167.028532 
L 169.051623 167.028532 
L 169.051623 163.459058 
L 158.621981 163.459058 
z
" clip-path="url(#p4628394078)" style="fill: #b1def2"/>
   </g>
   <g id="patch_40">
    <path d="M 169.051623 165.371276 
L 179.481266 165.371276 
L 179.481266 161.865542 
L 169.051623 161.865542 
z
" clip-path="url(#p4628394078)" style="fill: #b1def2"/>
   </g>
   <g id="patch_41">
    <path d="M 179.481266 167.984641 
L 189.910909 167.984641 
L 189.910909 165.339406 
L 179.481266 165.339406 
z
" clip-path="url(#p4628394078)" style="fill: #b1def2"/>
   </g>
   <g id="patch_42">
    <path d="M 189.910909 168.430826 
L 200.340552 168.430826 
L 200.340552 166.136164 
L 189.910909 166.136164 
z
" clip-path="url(#p4628394078)" style="fill: #b1def2"/>
   </g>
   <g id="patch_43">
    <path d="M 200.340552 168.940751 
L 210.770195 168.940751 
L 210.770195 166.869181 
L 200.340552 166.869181 
z
" clip-path="url(#p4628394078)" style="fill: #b1def2"/>
   </g>
   <g id="patch_44">
    <path d="M 210.770195 168.87701 
L 221.199838 168.87701 
L 221.199838 166.359256 
L 210.770195 166.359256 
z
" clip-path="url(#p4628394078)" style="fill: #b1def2"/>
   </g>
   <g id="patch_45">
    <path d="M 221.199838 170.119952 
L 231.629481 170.119952 
L 231.629481 168.080252 
L 221.199838 168.080252 
z
" clip-path="url(#p4628394078)" style="fill: #b1def2"/>
   </g>
   <g id="patch_46">
    <path d="M 231.629481 170.629877 
L 242.059123 170.629877 
L 242.059123 168.462696 
L 231.629481 168.462696 
z
" clip-path="url(#p4628394078)" style="fill: #b1def2"/>
   </g>
   <g id="patch_47">
    <path d="M 242.059123 170.374915 
L 252.488766 170.374915 
L 252.488766 168.717659 
L 242.059123 168.717659 
z
" clip-path="url(#p4628394078)" style="fill: #b1def2"/>
   </g>
   <g id="patch_48">
    <path d="M 252.488766 170.406785 
L 262.918409 170.406785 
L 262.918409 168.303345 
L 252.488766 168.303345 
z
" clip-path="url(#p4628394078)" style="fill: #b1def2"/>
   </g>
   <g id="patch_49">
    <path d="M 262.918409 171.426635 
L 273.348052 171.426635 
L 273.348052 169.705638 
L 262.918409 169.705638 
z
" clip-path="url(#p4628394078)" style="fill: #b1def2"/>
   </g>
   <g id="patch_50">
    <path d="M 273.348052 171.713468 
L 283.777695 171.713468 
L 283.777695 170.343044 
L 273.348052 170.343044 
z
" clip-path="url(#p4628394078)" style="fill: #b1def2"/>
   </g>
   <g id="patch_51">
    <path d="M 283.777695 171.809078 
L 294.207338 171.809078 
L 294.207338 170.088082 
L 283.777695 170.088082 
z
" clip-path="url(#p4628394078)" style="fill: #b1def2"/>
   </g>
   <g id="patch_52">
    <path d="M 294.207338 171.840949 
L 304.636981 171.840949 
L 304.636981 170.279304 
L 294.207338 170.279304 
z
" clip-path="url(#p4628394078)" style="fill: #b1def2"/>
   </g>
   <g id="patch_53">
    <path d="M 304.636981 172.127782 
L 315.066623 172.127782 
L 315.066623 170.884839 
L 304.636981 170.884839 
z
" clip-path="url(#p4628394078)" style="fill: #b1def2"/>
   </g>
   <g id="patch_54">
    <path d="M 315.066623 172.350874 
L 325.496266 172.350874 
L 325.496266 171.107932 
L 315.066623 171.107932 
z
" clip-path="url(#p4628394078)" style="fill: #b1def2"/>
   </g>
   <g id="patch_55">
    <path d="M 325.496266 171.93656 
L 335.925909 171.93656 
L 335.925909 170.279304 
L 325.496266 170.279304 
z
" clip-path="url(#p4628394078)" style="fill: #b1def2"/>
   </g>
   <g id="patch_56">
    <path d="M 85.614481 160.144546 
L 96.044123 160.144546 
L 96.044123 148.607494 
L 85.614481 148.607494 
z
" clip-path="url(#p4628394078)" style="fill: #32a9de"/>
   </g>
   <g id="patch_57">
    <path d="M 96.044123 161.132525 
L 106.473766 161.132525 
L 106.473766 149.977917 
L 96.044123 149.977917 
z
" clip-path="url(#p4628394078)" style="fill: #32a9de"/>
   </g>
   <g id="patch_58">
    <path d="M 106.473766 159.379658 
L 116.903409 159.379658 
L 116.903409 148.607494 
L 106.473766 148.607494 
z
" clip-path="url(#p4628394078)" style="fill: #32a9de"/>
   </g>
   <g id="patch_59">
    <path d="M 116.903409 159.921453 
L 127.333052 159.921453 
L 127.333052 149.659214 
L 116.903409 149.659214 
z
" clip-path="url(#p4628394078)" style="fill: #32a9de"/>
   </g>
   <g id="patch_60">
    <path d="M 127.333052 161.164396 
L 137.762695 161.164396 
L 137.762695 151.571433 
L 127.333052 151.571433 
z
" clip-path="url(#p4628394078)" style="fill: #32a9de"/>
   </g>
   <g id="patch_61">
    <path d="M 137.762695 160.813822 
L 148.192338 160.813822 
L 148.192338 151.603303 
L 137.762695 151.603303 
z
" clip-path="url(#p4628394078)" style="fill: #32a9de"/>
   </g>
   <g id="patch_62">
    <path d="M 148.192338 162.120505 
L 158.621981 162.120505 
L 158.621981 154.121057 
L 148.192338 154.121057 
z
" clip-path="url(#p4628394078)" style="fill: #32a9de"/>
   </g>
   <g id="patch_63">
    <path d="M 158.621981 163.459058 
L 169.051623 163.459058 
L 169.051623 157.244348 
L 158.621981 157.244348 
z
" clip-path="url(#p4628394078)" style="fill: #32a9de"/>
   </g>
   <g id="patch_64">
    <path d="M 169.051623 161.865542 
L 179.481266 161.865542 
L 179.481266 154.40789 
L 169.051623 154.40789 
z
" clip-path="url(#p4628394078)" style="fill: #32a9de"/>
   </g>
   <g id="patch_65">
    <path d="M 179.481266 165.339406 
L 189.910909 165.339406 
L 189.910909 159.793972 
L 179.481266 159.793972 
z
" clip-path="url(#p4628394078)" style="fill: #32a9de"/>
   </g>
   <g id="patch_66">
    <path d="M 189.910909 166.136164 
L 200.340552 166.136164 
L 200.340552 161.483099 
L 189.910909 161.483099 
z
" clip-path="url(#p4628394078)" style="fill: #32a9de"/>
   </g>
   <g id="patch_67">
    <path d="M 200.340552 166.869181 
L 210.770195 166.869181 
L 210.770195 162.311727 
L 200.340552 162.311727 
z
" clip-path="url(#p4628394078)" style="fill: #32a9de"/>
   </g>
   <g id="patch_68">
    <path d="M 210.770195 166.359256 
L 221.199838 166.359256 
L 221.199838 163.108484 
L 210.770195 163.108484 
z
" clip-path="url(#p4628394078)" style="fill: #32a9de"/>
   </g>
   <g id="patch_69">
    <path d="M 221.199838 168.080252 
L 231.629481 168.080252 
L 231.629481 164.447037 
L 221.199838 164.447037 
z
" clip-path="url(#p4628394078)" style="fill: #32a9de"/>
   </g>
   <g id="patch_70">
    <path d="M 231.629481 168.462696 
L 242.059123 168.462696 
L 242.059123 165.881201 
L 231.629481 165.881201 
z
" clip-path="url(#p4628394078)" style="fill: #32a9de"/>
   </g>
   <g id="patch_71">
    <path d="M 242.059123 168.717659 
L 252.488766 168.717659 
L 252.488766 166.072423 
L 242.059123 166.072423 
z
" clip-path="url(#p4628394078)" style="fill: #32a9de"/>
   </g>
   <g id="patch_72">
    <path d="M 252.488766 168.303345 
L 262.918409 168.303345 
L 262.918409 165.084443 
L 252.488766 165.084443 
z
" clip-path="url(#p4628394078)" style="fill: #32a9de"/>
   </g>
   <g id="patch_73">
    <path d="M 262.918409 169.705638 
L 273.348052 169.705638 
L 273.348052 167.79342 
L 262.918409 167.79342 
z
" clip-path="url(#p4628394078)" style="fill: #32a9de"/>
   </g>
   <g id="patch_74">
    <path d="M 273.348052 170.343044 
L 283.777695 170.343044 
L 283.777695 168.143993 
L 273.348052 168.143993 
z
" clip-path="url(#p4628394078)" style="fill: #32a9de"/>
   </g>
   <g id="patch_75">
    <path d="M 283.777695 170.088082 
L 294.207338 170.088082 
L 294.207338 168.367085 
L 283.777695 168.367085 
z
" clip-path="url(#p4628394078)" style="fill: #32a9de"/>
   </g>
   <g id="patch_76">
    <path d="M 294.207338 170.279304 
L 304.636981 170.279304 
L 304.636981 167.82529 
L 294.207338 167.82529 
z
" clip-path="url(#p4628394078)" style="fill: #32a9de"/>
   </g>
   <g id="patch_77">
    <path d="M 304.636981 170.884839 
L 315.066623 170.884839 
L 315.066623 169.131973 
L 304.636981 169.131973 
z
" clip-path="url(#p4628394078)" style="fill: #32a9de"/>
   </g>
   <g id="patch_78">
    <path d="M 315.066623 171.107932 
L 325.496266 171.107932 
L 325.496266 169.86499 
L 315.066623 169.86499 
z
" clip-path="url(#p4628394078)" style="fill: #32a9de"/>
   </g>
   <g id="patch_79">
    <path d="M 325.496266 170.279304 
L 335.925909 170.279304 
L 335.925909 168.239604 
L 325.496266 168.239604 
z
" clip-path="url(#p4628394078)" style="fill: #32a9de"/>
   </g>
   <g id="patch_80">
    <path d="M 85.614481 148.607494 
L 96.044123 148.607494 
L 96.044123 125.40591 
L 85.614481 125.40591 
z
" clip-path="url(#p4628394078)" style="fill: #1d74b9"/>
   </g>
   <g id="patch_81">
    <path d="M 96.044123 149.977917 
L 106.473766 149.977917 
L 106.473766 123.653043 
L 96.044123 123.653043 
z
" clip-path="url(#p4628394078)" style="fill: #1d74b9"/>
   </g>
   <g id="patch_82">
    <path d="M 106.473766 148.607494 
L 116.903409 148.607494 
L 116.903409 126.45763 
L 106.473766 126.45763 
z
" clip-path="url(#p4628394078)" style="fill: #1d74b9"/>
   </g>
   <g id="patch_83">
    <path d="M 116.903409 149.659214 
L 127.333052 149.659214 
L 127.333052 132.194285 
L 116.903409 132.194285 
z
" clip-path="url(#p4628394078)" style="fill: #1d74b9"/>
   </g>
   <g id="patch_84">
    <path d="M 127.333052 151.571433 
L 137.762695 151.571433 
L 137.762695 137.644108 
L 127.333052 137.644108 
z
" clip-path="url(#p4628394078)" style="fill: #1d74b9"/>
   </g>
   <g id="patch_85">
    <path d="M 137.762695 151.603303 
L 148.192338 151.603303 
L 148.192338 142.265303 
L 137.762695 142.265303 
z
" clip-path="url(#p4628394078)" style="fill: #1d74b9"/>
   </g>
   <g id="patch_86">
    <path d="M 148.192338 154.121057 
L 158.621981 154.121057 
L 158.621981 147.077719 
L 148.192338 147.077719 
z
" clip-path="url(#p4628394078)" style="fill: #1d74b9"/>
   </g>
   <g id="patch_87">
    <path d="M 158.621981 157.244348 
L 169.051623 157.244348 
L 169.051623 151.380211 
L 158.621981 151.380211 
z
" clip-path="url(#p4628394078)" style="fill: #1d74b9"/>
   </g>
   <g id="patch_88">
    <path d="M 169.051623 154.40789 
L 179.481266 154.40789 
L 179.481266 149.563603 
L 169.051623 149.563603 
z
" clip-path="url(#p4628394078)" style="fill: #1d74b9"/>
   </g>
   <g id="patch_89">
    <path d="M 179.481266 159.793972 
L 189.910909 159.793972 
L 189.910909 156.734423 
L 179.481266 156.734423 
z
" clip-path="url(#p4628394078)" style="fill: #1d74b9"/>
   </g>
   <g id="patch_90">
    <path d="M 189.910909 161.483099 
L 200.340552 161.483099 
L 200.340552 159.284047 
L 189.910909 159.284047 
z
" clip-path="url(#p4628394078)" style="fill: #1d74b9"/>
   </g>
   <g id="patch_91">
    <path d="M 200.340552 162.311727 
L 210.770195 162.311727 
L 210.770195 160.526989 
L 200.340552 160.526989 
z
" clip-path="url(#p4628394078)" style="fill: #1d74b9"/>
   </g>
   <g id="patch_92">
    <path d="M 210.770195 163.108484 
L 221.199838 163.108484 
L 221.199838 161.833672 
L 210.770195 161.833672 
z
" clip-path="url(#p4628394078)" style="fill: #1d74b9"/>
   </g>
   <g id="patch_93">
    <path d="M 221.199838 164.447037 
L 231.629481 164.447037 
L 231.629481 163.299706 
L 221.199838 163.299706 
z
" clip-path="url(#p4628394078)" style="fill: #1d74b9"/>
   </g>
   <g id="patch_94">
    <path d="M 231.629481 165.881201 
L 242.059123 165.881201 
L 242.059123 164.797611 
L 231.629481 164.797611 
z
" clip-path="url(#p4628394078)" style="fill: #1d74b9"/>
   </g>
   <g id="patch_95">
    <path d="M 242.059123 166.072423 
L 252.488766 166.072423 
L 252.488766 165.116314 
L 242.059123 165.116314 
z
" clip-path="url(#p4628394078)" style="fill: #1d74b9"/>
   </g>
   <g id="patch_96">
    <path d="M 252.488766 165.084443 
L 262.918409 165.084443 
L 262.918409 164.415167 
L 252.488766 164.415167 
z
" clip-path="url(#p4628394078)" style="fill: #1d74b9"/>
   </g>
   <g id="patch_97">
    <path d="M 262.918409 167.79342 
L 273.348052 167.79342 
L 273.348052 167.283495 
L 262.918409 167.283495 
z
" clip-path="url(#p4628394078)" style="fill: #1d74b9"/>
   </g>
   <g id="patch_98">
    <path d="M 273.348052 168.143993 
L 283.777695 168.143993 
L 283.777695 167.570327 
L 273.348052 167.570327 
z
" clip-path="url(#p4628394078)" style="fill: #1d74b9"/>
   </g>
   <g id="patch_99">
    <path d="M 283.777695 168.367085 
L 294.207338 168.367085 
L 294.207338 167.82529 
L 283.777695 167.82529 
z
" clip-path="url(#p4628394078)" style="fill: #1d74b9"/>
   </g>
   <g id="patch_100">
    <path d="M 294.207338 167.82529 
L 304.636981 167.82529 
L 304.636981 167.347235 
L 294.207338 167.347235 
z
" clip-path="url(#p4628394078)" style="fill: #1d74b9"/>
   </g>
   <g id="patch_101">
    <path d="M 304.636981 169.131973 
L 315.066623 169.131973 
L 315.066623 168.90888 
L 304.636981 168.90888 
z
" clip-path="url(#p4628394078)" style="fill: #1d74b9"/>
   </g>
   <g id="patch_102">
    <path d="M 315.066623 169.86499 
L 325.496266 169.86499 
L 325.496266 169.482546 
L 315.066623 169.482546 
z
" clip-path="url(#p4628394078)" style="fill: #1d74b9"/>
   </g>
   <g id="patch_103">
    <path d="M 325.496266 168.239604 
L 335.925909 168.239604 
L 335.925909 168.080252 
L 325.496266 168.080252 
z
" clip-path="url(#p4628394078)" style="fill: #1d74b9"/>
   </g>
   <g id="patch_104">
    <path d="M 85.614481 125.40591 
L 96.044123 125.40591 
L 96.044123 19.660227 
L 85.614481 19.660227 
z
" clip-path="url(#p4628394078)" style="fill: #109e71"/>
   </g>
   <g id="patch_105">
    <path d="M 96.044123 123.653043 
L 106.473766 123.653043 
L 106.473766 113.390804 
L 96.044123 113.390804 
z
" clip-path="url(#p4628394078)" style="fill: #109e71"/>
   </g>
   <g id="patch_106">
    <path d="M 106.473766 126.45763 
L 116.903409 126.45763 
L 116.903409 123.238729 
L 106.473766 123.238729 
z
" clip-path="url(#p4628394078)" style="fill: #109e71"/>
   </g>
   <g id="patch_107">
    <path d="M 116.903409 132.194285 
L 127.333052 132.194285 
L 127.333052 131.015084 
L 116.903409 131.015084 
z
" clip-path="url(#p4628394078)" style="fill: #109e71"/>
   </g>
   <g id="patch_108">
    <path d="M 127.333052 137.644108 
L 137.762695 137.644108 
L 137.762695 136.911091 
L 127.333052 136.911091 
z
" clip-path="url(#p4628394078)" style="fill: #109e71"/>
   </g>
   <g id="patch_109">
    <path d="M 137.762695 142.265303 
L 148.192338 142.265303 
L 148.192338 142.042211 
L 137.762695 142.042211 
z
" clip-path="url(#p4628394078)" style="fill: #109e71"/>
   </g>
   <g id="patch_110">
    <path d="M 148.192338 147.077719 
L 158.621981 147.077719 
L 158.621981 146.918368 
L 148.192338 146.918368 
z
" clip-path="url(#p4628394078)" style="fill: #109e71"/>
   </g>
   <g id="patch_111">
    <path d="M 158.621981 151.380211 
L 169.051623 151.380211 
L 169.051623 151.2846 
L 158.621981 151.2846 
z
" clip-path="url(#p4628394078)" style="fill: #109e71"/>
   </g>
   <g id="patch_112">
    <path d="M 169.051623 149.563603 
L 179.481266 149.563603 
L 179.481266 149.467992 
L 169.051623 149.467992 
z
" clip-path="url(#p4628394078)" style="fill: #109e71"/>
   </g>
   <g id="patch_113">
    <path d="M 179.481266 156.734423 
L 189.910909 156.734423 
L 189.910909 156.702552 
L 179.481266 156.702552 
z
" clip-path="url(#p4628394078)" style="fill: #109e71"/>
   </g>
   <g id="patch_114">
    <path d="M 189.910909 159.284047 
L 200.340552 159.284047 
L 200.340552 159.220307 
L 189.910909 159.220307 
z
" clip-path="url(#p4628394078)" style="fill: #109e71"/>
   </g>
   <g id="patch_115">
    <path d="M 200.340552 160.526989 
L 210.770195 160.526989 
L 210.770195 160.526989 
L 200.340552 160.526989 
z
" clip-path="url(#p4628394078)" style="fill: #109e71"/>
   </g>
   <g id="patch_116">
    <path d="M 210.770195 161.833672 
L 221.199838 161.833672 
L 221.199838 161.833672 
L 210.770195 161.833672 
z
" clip-path="url(#p4628394078)" style="fill: #109e71"/>
   </g>
   <g id="patch_117">
    <path d="M 221.199838 163.299706 
L 231.629481 163.299706 
L 231.629481 163.299706 
L 221.199838 163.299706 
z
" clip-path="url(#p4628394078)" style="fill: #109e71"/>
   </g>
   <g id="patch_118">
    <path d="M 231.629481 164.797611 
L 242.059123 164.797611 
L 242.059123 164.797611 
L 231.629481 164.797611 
z
" clip-path="url(#p4628394078)" style="fill: #109e71"/>
   </g>
   <g id="patch_119">
    <path d="M 242.059123 165.116314 
L 252.488766 165.116314 
L 252.488766 165.116314 
L 242.059123 165.116314 
z
" clip-path="url(#p4628394078)" style="fill: #109e71"/>
   </g>
   <g id="patch_120">
    <path d="M 252.488766 164.415167 
L 262.918409 164.415167 
L 262.918409 164.351426 
L 252.488766 164.351426 
z
" clip-path="url(#p4628394078)" style="fill: #109e71"/>
   </g>
   <g id="patch_121">
    <path d="M 262.918409 167.283495 
L 273.348052 167.283495 
L 273.348052 167.283495 
L 262.918409 167.283495 
z
" clip-path="url(#p4628394078)" style="fill: #109e71"/>
   </g>
   <g id="patch_122">
    <path d="M 273.348052 167.570327 
L 283.777695 167.570327 
L 283.777695 167.570327 
L 273.348052 167.570327 
z
" clip-path="url(#p4628394078)" style="fill: #109e71"/>
   </g>
   <g id="patch_123">
    <path d="M 283.777695 167.82529 
L 294.207338 167.82529 
L 294.207338 167.82529 
L 283.777695 167.82529 
z
" clip-path="url(#p4628394078)" style="fill: #109e71"/>
   </g>
   <g id="patch_124">
    <path d="M 294.207338 167.347235 
L 304.636981 167.347235 
L 304.636981 167.347235 
L 294.207338 167.347235 
z
" clip-path="url(#p4628394078)" style="fill: #109e71"/>
   </g>
   <g id="patch_125">
    <path d="M 304.636981 168.90888 
L 315.066623 168.90888 
L 315.066623 168.90888 
L 304.636981 168.90888 
z
" clip-path="url(#p4628394078)" style="fill: #109e71"/>
   </g>
   <g id="patch_126">
    <path d="M 315.066623 169.482546 
L 325.496266 169.482546 
L 325.496266 169.482546 
L 315.066623 169.482546 
z
" clip-path="url(#p4628394078)" style="fill: #109e71"/>
   </g>
   <g id="patch_127">
    <path d="M 325.496266 168.080252 
L 335.925909 168.080252 
L 335.925909 168.080252 
L 325.496266 168.080252 
z
" clip-path="url(#p4628394078)" style="fill: #109e71"/>
   </g>
   <g id="matplotlib.axis_1">
    <g id="xtick_1">
     <g id="line2d_1">
      <defs>
       <path id="mbc638ba0f9" d="M 0 0 
L 0 3.5 
" style="stroke: #000000; stroke-width: 0.8"/>
      </defs>
      <g>
       <use xlink:href="#mbc638ba0f9" x="72.972489" y="174.04" style="stroke: #000000; stroke-width: 0.8"/>
      </g>
     </g>
     <g id="text_1">
      <!-- 0 -->
      <g transform="translate(69.791239 188.638438) scale(0.1 -0.1)">
       <defs>
        <path id="DejaVuSans-30" d="M 2034 4250 
Q 1547 4250 1301 3770 
Q 1056 3291 1056 2328 
Q 1056 1369 1301 889 
Q 1547 409 2034 409 
Q 2525 409 2770 889 
Q 3016 1369 3016 2328 
Q 3016 3291 2770 3770 
Q 2525 4250 2034 4250 
z
M 2034 4750 
Q 2819 4750 3233 4129 
Q 3647 3509 3647 2328 
Q 3647 1150 3233 529 
Q 2819 -91 2034 -91 
Q 1250 -91 836 529 
Q 422 1150 422 2328 
Q 422 3509 836 4129 
Q 1250 4750 2034 4750 
z
" transform="scale(0.015625)"/>
       </defs>
       <use xlink:href="#DejaVuSans-30"/>
      </g>
     </g>
    </g>
    <g id="xtick_2">
     <g id="line2d_2">
      <g>
       <use xlink:href="#mbc638ba0f9" x="85.614481" y="174.04" style="stroke: #000000; stroke-width: 0.8"/>
      </g>
     </g>
     <g id="text_2">
      <!-- 1 -->
      <g transform="translate(82.433231 188.638438) scale(0.1 -0.1)">
       <defs>
        <path id="DejaVuSans-31" d="M 794 531 
L 1825 531 
L 1825 4091 
L 703 3866 
L 703 4441 
L 1819 4666 
L 2450 4666 
L 2450 531 
L 3481 531 
L 3481 0 
L 794 0 
L 794 531 
z
" transform="scale(0.015625)"/>
       </defs>
       <use xlink:href="#DejaVuSans-31"/>
      </g>
     </g>
    </g>
    <g id="xtick_3">
     <g id="line2d_3">
      <g>
       <use xlink:href="#mbc638ba0f9" x="146.296039" y="174.04" style="stroke: #000000; stroke-width: 0.8"/>
      </g>
     </g>
     <g id="text_3">
      <!-- 25 -->
      <g transform="translate(139.933539 188.638438) scale(0.1 -0.1)">
       <defs>
        <path id="DejaVuSans-32" d="M 1228 531 
L 3431 531 
L 3431 0 
L 469 0 
L 469 531 
Q 828 903 1448 1529 
Q 2069 2156 2228 2338 
Q 2531 2678 2651 2914 
Q 2772 3150 2772 3378 
Q 2772 3750 2511 3984 
Q 2250 4219 1831 4219 
Q 1534 4219 1204 4116 
Q 875 4013 500 3803 
L 500 4441 
Q 881 4594 1212 4672 
Q 1544 4750 1819 4750 
Q 2544 4750 2975 4387 
Q 3406 4025 3406 3419 
Q 3406 3131 3298 2873 
Q 3191 2616 2906 2266 
Q 2828 2175 2409 1742 
Q 1991 1309 1228 531 
z
" transform="scale(0.015625)"/>
        <path id="DejaVuSans-35" d="M 691 4666 
L 3169 4666 
L 3169 4134 
L 1269 4134 
L 1269 2991 
Q 1406 3038 1543 3061 
Q 1681 3084 1819 3084 
Q 2600 3084 3056 2656 
Q 3513 2228 3513 1497 
Q 3513 744 3044 326 
Q 2575 -91 1722 -91 
Q 1428 -91 1123 -41 
Q 819 9 494 109 
L 494 744 
Q 775 591 1075 516 
Q 1375 441 1709 441 
Q 2250 441 2565 725 
Q 2881 1009 2881 1497 
Q 2881 1984 2565 2268 
Q 2250 2553 1709 2553 
Q 1456 2553 1204 2497 
Q 953 2441 691 2322 
L 691 4666 
z
" transform="scale(0.015625)"/>
       </defs>
       <use xlink:href="#DejaVuSans-32"/>
       <use xlink:href="#DejaVuSans-35" transform="translate(63.623047 0)"/>
      </g>
     </g>
    </g>
    <g id="xtick_4">
     <g id="line2d_4">
      <g>
       <use xlink:href="#mbc638ba0f9" x="209.505996" y="174.04" style="stroke: #000000; stroke-width: 0.8"/>
      </g>
     </g>
     <g id="text_4">
      <!-- 50 -->
      <g transform="translate(203.143496 188.638438) scale(0.1 -0.1)">
       <use xlink:href="#DejaVuSans-35"/>
       <use xlink:href="#DejaVuSans-30" transform="translate(63.623047 0)"/>
      </g>
     </g>
    </g>
    <g id="xtick_5">
     <g id="line2d_5">
      <g>
       <use xlink:href="#mbc638ba0f9" x="272.715952" y="174.04" style="stroke: #000000; stroke-width: 0.8"/>
      </g>
     </g>
     <g id="text_5">
      <!-- 75 -->
      <g transform="translate(266.353452 188.638438) scale(0.1 -0.1)">
       <defs>
        <path id="DejaVuSans-37" d="M 525 4666 
L 3525 4666 
L 3525 4397 
L 1831 0 
L 1172 0 
L 2766 4134 
L 525 4134 
L 525 4666 
z
" transform="scale(0.015625)"/>
       </defs>
       <use xlink:href="#DejaVuSans-37"/>
       <use xlink:href="#DejaVuSans-35" transform="translate(63.623047 0)"/>
      </g>
     </g>
    </g>
    <g id="xtick_6">
     <g id="line2d_6">
      <g>
       <use xlink:href="#mbc638ba0f9" x="335.925909" y="174.04" style="stroke: #000000; stroke-width: 0.8"/>
      </g>
     </g>
     <g id="text_6">
      <!-- 100 -->
      <g transform="translate(326.382159 188.638438) scale(0.1 -0.1)">
       <use xlink:href="#DejaVuSans-31"/>
       <use xlink:href="#DejaVuSans-30" transform="translate(63.623047 0)"/>
       <use xlink:href="#DejaVuSans-30" transform="translate(127.246094 0)"/>
      </g>
     </g>
    </g>
    <g id="text_7">
     <!-- Number of edits -->
     <g transform="translate(162.896719 202.316563) scale(0.1 -0.1)">
      <defs>
       <path id="DejaVuSans-4e" d="M 628 4666 
L 1478 4666 
L 3547 763 
L 3547 4666 
L 4159 4666 
L 4159 0 
L 3309 0 
L 1241 3903 
L 1241 0 
L 628 0 
L 628 4666 
z
" transform="scale(0.015625)"/>
       <path id="DejaVuSans-75" d="M 544 1381 
L 544 3500 
L 1119 3500 
L 1119 1403 
Q 1119 906 1312 657 
Q 1506 409 1894 409 
Q 2359 409 2629 706 
Q 2900 1003 2900 1516 
L 2900 3500 
L 3475 3500 
L 3475 0 
L 2900 0 
L 2900 538 
Q 2691 219 2414 64 
Q 2138 -91 1772 -91 
Q 1169 -91 856 284 
Q 544 659 544 1381 
z
M 1991 3584 
L 1991 3584 
z
" transform="scale(0.015625)"/>
       <path id="DejaVuSans-6d" d="M 3328 2828 
Q 3544 3216 3844 3400 
Q 4144 3584 4550 3584 
Q 5097 3584 5394 3201 
Q 5691 2819 5691 2113 
L 5691 0 
L 5113 0 
L 5113 2094 
Q 5113 2597 4934 2840 
Q 4756 3084 4391 3084 
Q 3944 3084 3684 2787 
Q 3425 2491 3425 1978 
L 3425 0 
L 2847 0 
L 2847 2094 
Q 2847 2600 2669 2842 
Q 2491 3084 2119 3084 
Q 1678 3084 1418 2786 
Q 1159 2488 1159 1978 
L 1159 0 
L 581 0 
L 581 3500 
L 1159 3500 
L 1159 2956 
Q 1356 3278 1631 3431 
Q 1906 3584 2284 3584 
Q 2666 3584 2933 3390 
Q 3200 3197 3328 2828 
z
" transform="scale(0.015625)"/>
       <path id="DejaVuSans-62" d="M 3116 1747 
Q 3116 2381 2855 2742 
Q 2594 3103 2138 3103 
Q 1681 3103 1420 2742 
Q 1159 2381 1159 1747 
Q 1159 1113 1420 752 
Q 1681 391 2138 391 
Q 2594 391 2855 752 
Q 3116 1113 3116 1747 
z
M 1159 2969 
Q 1341 3281 1617 3432 
Q 1894 3584 2278 3584 
Q 2916 3584 3314 3078 
Q 3713 2572 3713 1747 
Q 3713 922 3314 415 
Q 2916 -91 2278 -91 
Q 1894 -91 1617 61 
Q 1341 213 1159 525 
L 1159 0 
L 581 0 
L 581 4863 
L 1159 4863 
L 1159 2969 
z
" transform="scale(0.015625)"/>
       <path id="DejaVuSans-65" d="M 3597 1894 
L 3597 1613 
L 953 1613 
Q 991 1019 1311 708 
Q 1631 397 2203 397 
Q 2534 397 2845 478 
Q 3156 559 3463 722 
L 3463 178 
Q 3153 47 2828 -22 
Q 2503 -91 2169 -91 
Q 1331 -91 842 396 
Q 353 884 353 1716 
Q 353 2575 817 3079 
Q 1281 3584 2069 3584 
Q 2775 3584 3186 3129 
Q 3597 2675 3597 1894 
z
M 3022 2063 
Q 3016 2534 2758 2815 
Q 2500 3097 2075 3097 
Q 1594 3097 1305 2825 
Q 1016 2553 972 2059 
L 3022 2063 
z
" transform="scale(0.015625)"/>
       <path id="DejaVuSans-72" d="M 2631 2963 
Q 2534 3019 2420 3045 
Q 2306 3072 2169 3072 
Q 1681 3072 1420 2755 
Q 1159 2438 1159 1844 
L 1159 0 
L 581 0 
L 581 3500 
L 1159 3500 
L 1159 2956 
Q 1341 3275 1631 3429 
Q 1922 3584 2338 3584 
Q 2397 3584 2469 3576 
Q 2541 3569 2628 3553 
L 2631 2963 
z
" transform="scale(0.015625)"/>
       <path id="DejaVuSans-20" transform="scale(0.015625)"/>
       <path id="DejaVuSans-6f" d="M 1959 3097 
Q 1497 3097 1228 2736 
Q 959 2375 959 1747 
Q 959 1119 1226 758 
Q 1494 397 1959 397 
Q 2419 397 2687 759 
Q 2956 1122 2956 1747 
Q 2956 2369 2687 2733 
Q 2419 3097 1959 3097 
z
M 1959 3584 
Q 2709 3584 3137 3096 
Q 3566 2609 3566 1747 
Q 3566 888 3137 398 
Q 2709 -91 1959 -91 
Q 1206 -91 779 398 
Q 353 888 353 1747 
Q 353 2609 779 3096 
Q 1206 3584 1959 3584 
z
" transform="scale(0.015625)"/>
       <path id="DejaVuSans-66" d="M 2375 4863 
L 2375 4384 
L 1825 4384 
Q 1516 4384 1395 4259 
Q 1275 4134 1275 3809 
L 1275 3500 
L 2222 3500 
L 2222 3053 
L 1275 3053 
L 1275 0 
L 697 0 
L 697 3053 
L 147 3053 
L 147 3500 
L 697 3500 
L 697 3744 
Q 697 4328 969 4595 
Q 1241 4863 1831 4863 
L 2375 4863 
z
" transform="scale(0.015625)"/>
       <path id="DejaVuSans-64" d="M 2906 2969 
L 2906 4863 
L 3481 4863 
L 3481 0 
L 2906 0 
L 2906 525 
Q 2725 213 2448 61 
Q 2172 -91 1784 -91 
Q 1150 -91 751 415 
Q 353 922 353 1747 
Q 353 2572 751 3078 
Q 1150 3584 1784 3584 
Q 2172 3584 2448 3432 
Q 2725 3281 2906 2969 
z
M 947 1747 
Q 947 1113 1208 752 
Q 1469 391 1925 391 
Q 2381 391 2643 752 
Q 2906 1113 2906 1747 
Q 2906 2381 2643 2742 
Q 2381 3103 1925 3103 
Q 1469 3103 1208 2742 
Q 947 2381 947 1747 
z
" transform="scale(0.015625)"/>
       <path id="DejaVuSans-69" d="M 603 3500 
L 1178 3500 
L 1178 0 
L 603 0 
L 603 3500 
z
M 603 4863 
L 1178 4863 
L 1178 4134 
L 603 4134 
L 603 4863 
z
" transform="scale(0.015625)"/>
       <path id="DejaVuSans-74" d="M 1172 4494 
L 1172 3500 
L 2356 3500 
L 2356 3053 
L 1172 3053 
L 1172 1153 
Q 1172 725 1289 603 
Q 1406 481 1766 481 
L 2356 481 
L 2356 0 
L 1766 0 
Q 1100 0 847 248 
Q 594 497 594 1153 
L 594 3053 
L 172 3053 
L 172 3500 
L 594 3500 
L 594 4494 
L 1172 4494 
z
" transform="scale(0.015625)"/>
       <path id="DejaVuSans-73" d="M 2834 3397 
L 2834 2853 
Q 2591 2978 2328 3040 
Q 2066 3103 1784 3103 
Q 1356 3103 1142 2972 
Q 928 2841 928 2578 
Q 928 2378 1081 2264 
Q 1234 2150 1697 2047 
L 1894 2003 
Q 2506 1872 2764 1633 
Q 3022 1394 3022 966 
Q 3022 478 2636 193 
Q 2250 -91 1575 -91 
Q 1294 -91 989 -36 
Q 684 19 347 128 
L 347 722 
Q 666 556 975 473 
Q 1284 391 1588 391 
Q 1994 391 2212 530 
Q 2431 669 2431 922 
Q 2431 1156 2273 1281 
Q 2116 1406 1581 1522 
L 1381 1569 
Q 847 1681 609 1914 
Q 372 2147 372 2553 
Q 372 3047 722 3315 
Q 1072 3584 1716 3584 
Q 2034 3584 2315 3537 
Q 2597 3491 2834 3397 
z
" transform="scale(0.015625)"/>
      </defs>
      <use xlink:href="#DejaVuSans-4e"/>
      <use xlink:href="#DejaVuSans-75" transform="translate(74.804688 0)"/>
      <use xlink:href="#DejaVuSans-6d" transform="translate(138.183594 0)"/>
      <use xlink:href="#DejaVuSans-62" transform="translate(235.595703 0)"/>
      <use xlink:href="#DejaVuSans-65" transform="translate(299.072266 0)"/>
      <use xlink:href="#DejaVuSans-72" transform="translate(360.595703 0)"/>
      <use xlink:href="#DejaVuSans-20" transform="translate(401.708984 0)"/>
      <use xlink:href="#DejaVuSans-6f" transform="translate(433.496094 0)"/>
      <use xlink:href="#DejaVuSans-66" transform="translate(494.677734 0)"/>
      <use xlink:href="#DejaVuSans-20" transform="translate(529.882812 0)"/>
      <use xlink:href="#DejaVuSans-65" transform="translate(561.669922 0)"/>
      <use xlink:href="#DejaVuSans-64" transform="translate(623.193359 0)"/>
      <use xlink:href="#DejaVuSans-69" transform="translate(686.669922 0)"/>
      <use xlink:href="#DejaVuSans-74" transform="translate(714.453125 0)"/>
      <use xlink:href="#DejaVuSans-73" transform="translate(753.662109 0)"/>
     </g>
    </g>
   </g>
   <g id="matplotlib.axis_2">
    <g id="ytick_1">
     <g id="line2d_7">
      <defs>
       <path id="mb9c863e63a" d="M 0 0 
L -3.5 0 
" style="stroke: #000000; stroke-width: 0.8"/>
      </defs>
      <g>
       <use xlink:href="#mb9c863e63a" x="57.17" y="174.04" style="stroke: #000000; stroke-width: 0.8"/>
      </g>
     </g>
     <g id="text_8">
      <!-- 0 -->
      <g transform="translate(43.8075 177.839219) scale(0.1 -0.1)">
       <use xlink:href="#DejaVuSans-30"/>
      </g>
     </g>
    </g>
    <g id="ytick_2">
     <g id="line2d_8">
      <g>
       <use xlink:href="#mb9c863e63a" x="57.17" y="142.169692" style="stroke: #000000; stroke-width: 0.8"/>
      </g>
     </g>
     <g id="text_9">
      <!-- 1000 -->
      <g transform="translate(24.72 145.968911) scale(0.1 -0.1)">
       <use xlink:href="#DejaVuSans-31"/>
       <use xlink:href="#DejaVuSans-30" transform="translate(63.623047 0)"/>
       <use xlink:href="#DejaVuSans-30" transform="translate(127.246094 0)"/>
       <use xlink:href="#DejaVuSans-30" transform="translate(190.869141 0)"/>
      </g>
     </g>
    </g>
    <g id="ytick_3">
     <g id="line2d_9">
      <g>
       <use xlink:href="#mb9c863e63a" x="57.17" y="110.299384" style="stroke: #000000; stroke-width: 0.8"/>
      </g>
     </g>
     <g id="text_10">
      <!-- 2000 -->
      <g transform="translate(24.72 114.098602) scale(0.1 -0.1)">
       <use xlink:href="#DejaVuSans-32"/>
       <use xlink:href="#DejaVuSans-30" transform="translate(63.623047 0)"/>
       <use xlink:href="#DejaVuSans-30" transform="translate(127.246094 0)"/>
       <use xlink:href="#DejaVuSans-30" transform="translate(190.869141 0)"/>
      </g>
     </g>
    </g>
    <g id="ytick_4">
     <g id="line2d_10">
      <g>
       <use xlink:href="#mb9c863e63a" x="57.17" y="78.429076" style="stroke: #000000; stroke-width: 0.8"/>
      </g>
     </g>
     <g id="text_11">
      <!-- 3000 -->
      <g transform="translate(24.72 82.228294) scale(0.1 -0.1)">
       <defs>
        <path id="DejaVuSans-33" d="M 2597 2516 
Q 3050 2419 3304 2112 
Q 3559 1806 3559 1356 
Q 3559 666 3084 287 
Q 2609 -91 1734 -91 
Q 1441 -91 1130 -33 
Q 819 25 488 141 
L 488 750 
Q 750 597 1062 519 
Q 1375 441 1716 441 
Q 2309 441 2620 675 
Q 2931 909 2931 1356 
Q 2931 1769 2642 2001 
Q 2353 2234 1838 2234 
L 1294 2234 
L 1294 2753 
L 1863 2753 
Q 2328 2753 2575 2939 
Q 2822 3125 2822 3475 
Q 2822 3834 2567 4026 
Q 2313 4219 1838 4219 
Q 1578 4219 1281 4162 
Q 984 4106 628 3988 
L 628 4550 
Q 988 4650 1302 4700 
Q 1616 4750 1894 4750 
Q 2613 4750 3031 4423 
Q 3450 4097 3450 3541 
Q 3450 3153 3228 2886 
Q 3006 2619 2597 2516 
z
" transform="scale(0.015625)"/>
       </defs>
       <use xlink:href="#DejaVuSans-33"/>
       <use xlink:href="#DejaVuSans-30" transform="translate(63.623047 0)"/>
       <use xlink:href="#DejaVuSans-30" transform="translate(127.246094 0)"/>
       <use xlink:href="#DejaVuSans-30" transform="translate(190.869141 0)"/>
      </g>
     </g>
    </g>
    <g id="ytick_5">
     <g id="line2d_11">
      <g>
       <use xlink:href="#mb9c863e63a" x="57.17" y="46.558767" style="stroke: #000000; stroke-width: 0.8"/>
      </g>
     </g>
     <g id="text_12">
      <!-- 4000 -->
      <g transform="translate(24.72 50.357986) scale(0.1 -0.1)">
       <defs>
        <path id="DejaVuSans-34" d="M 2419 4116 
L 825 1625 
L 2419 1625 
L 2419 4116 
z
M 2253 4666 
L 3047 4666 
L 3047 1625 
L 3713 1625 
L 3713 1100 
L 3047 1100 
L 3047 0 
L 2419 0 
L 2419 1100 
L 313 1100 
L 313 1709 
L 2253 4666 
z
" transform="scale(0.015625)"/>
       </defs>
       <use xlink:href="#DejaVuSans-34"/>
       <use xlink:href="#DejaVuSans-30" transform="translate(63.623047 0)"/>
       <use xlink:href="#DejaVuSans-30" transform="translate(127.246094 0)"/>
       <use xlink:href="#DejaVuSans-30" transform="translate(190.869141 0)"/>
      </g>
     </g>
    </g>
    <g id="ytick_6">
     <g id="line2d_12">
      <g>
       <use xlink:href="#mb9c863e63a" x="57.17" y="14.688459" style="stroke: #000000; stroke-width: 0.8"/>
      </g>
     </g>
     <g id="text_13">
      <!-- 5000 -->
      <g transform="translate(24.72 18.487678) scale(0.1 -0.1)">
       <use xlink:href="#DejaVuSans-35"/>
       <use xlink:href="#DejaVuSans-30" transform="translate(63.623047 0)"/>
       <use xlink:href="#DejaVuSans-30" transform="translate(127.246094 0)"/>
       <use xlink:href="#DejaVuSans-30" transform="translate(190.869141 0)"/>
      </g>
     </g>
    </g>
    <g id="text_14">
     <!-- Cells -->
     <g transform="translate(18.640313 104.941401) rotate(-90) scale(0.1 -0.1)">
      <defs>
       <path id="DejaVuSans-43" d="M 4122 4306 
L 4122 3641 
Q 3803 3938 3442 4084 
Q 3081 4231 2675 4231 
Q 1875 4231 1450 3742 
Q 1025 3253 1025 2328 
Q 1025 1406 1450 917 
Q 1875 428 2675 428 
Q 3081 428 3442 575 
Q 3803 722 4122 1019 
L 4122 359 
Q 3791 134 3420 21 
Q 3050 -91 2638 -91 
Q 1578 -91 968 557 
Q 359 1206 359 2328 
Q 359 3453 968 4101 
Q 1578 4750 2638 4750 
Q 3056 4750 3426 4639 
Q 3797 4528 4122 4306 
z
" transform="scale(0.015625)"/>
       <path id="DejaVuSans-6c" d="M 603 4863 
L 1178 4863 
L 1178 0 
L 603 0 
L 603 4863 
z
" transform="scale(0.015625)"/>
      </defs>
      <use xlink:href="#DejaVuSans-43"/>
      <use xlink:href="#DejaVuSans-65" transform="translate(69.824219 0)"/>
      <use xlink:href="#DejaVuSans-6c" transform="translate(131.347656 0)"/>
      <use xlink:href="#DejaVuSans-6c" transform="translate(159.130859 0)"/>
      <use xlink:href="#DejaVuSans-73" transform="translate(186.914062 0)"/>
     </g>
    </g>
   </g>
   <g id="patch_128">
    <path d="M 57.17 174.04 
L 57.17 11.941239 
" style="fill: none; stroke: #000000; stroke-width: 0.8; stroke-linejoin: miter; stroke-linecap: square"/>
   </g>
   <g id="patch_129">
    <path d="M 57.17 174.04 
L 349.2 174.04 
" style="fill: none; stroke: #000000; stroke-width: 0.8; stroke-linejoin: miter; stroke-linecap: square"/>
   </g>
   <g id="legend_1">
    <g id="patch_130">
     <path d="M 279.734375 28.539676 
L 299.734375 28.539676 
L 299.734375 21.539676 
L 279.734375 21.539676 
z
" style="fill: #109e71"/>
    </g>
    <g id="text_15">
     <!-- BC -->
     <g transform="translate(307.734375 28.539676) scale(0.1 -0.1)">
      <defs>
       <path id="DejaVuSans-42" d="M 1259 2228 
L 1259 519 
L 2272 519 
Q 2781 519 3026 730 
Q 3272 941 3272 1375 
Q 3272 1813 3026 2020 
Q 2781 2228 2272 2228 
L 1259 2228 
z
M 1259 4147 
L 1259 2741 
L 2194 2741 
Q 2656 2741 2882 2914 
Q 3109 3088 3109 3444 
Q 3109 3797 2882 3972 
Q 2656 4147 2194 4147 
L 1259 4147 
z
M 628 4666 
L 2241 4666 
Q 2963 4666 3353 4366 
Q 3744 4066 3744 3513 
Q 3744 3084 3544 2831 
Q 3344 2578 2956 2516 
Q 3422 2416 3680 2098 
Q 3938 1781 3938 1306 
Q 3938 681 3513 340 
Q 3088 0 2303 0 
L 628 0 
L 628 4666 
z
" transform="scale(0.015625)"/>
      </defs>
      <use xlink:href="#DejaVuSans-42"/>
      <use xlink:href="#DejaVuSans-43" transform="translate(66.853516 0)"/>
     </g>
    </g>
    <g id="patch_131">
     <path d="M 279.734375 43.217801 
L 299.734375 43.217801 
L 299.734375 36.217801 
L 279.734375 36.217801 
z
" style="fill: #1d74b9"/>
    </g>
    <g id="text_16">
     <!-- NF AC -->
     <g transform="translate(307.734375 43.217801) scale(0.1 -0.1)">
      <defs>
       <path id="DejaVuSans-46" d="M 628 4666 
L 3309 4666 
L 3309 4134 
L 1259 4134 
L 1259 2759 
L 3109 2759 
L 3109 2228 
L 1259 2228 
L 1259 0 
L 628 0 
L 628 4666 
z
" transform="scale(0.015625)"/>
       <path id="DejaVuSans-41" d="M 2188 4044 
L 1331 1722 
L 3047 1722 
L 2188 4044 
z
M 1831 4666 
L 2547 4666 
L 4325 0 
L 3669 0 
L 3244 1197 
L 1141 1197 
L 716 0 
L 50 0 
L 1831 4666 
z
" transform="scale(0.015625)"/>
      </defs>
      <use xlink:href="#DejaVuSans-4e"/>
      <use xlink:href="#DejaVuSans-46" transform="translate(74.804688 0)"/>
      <use xlink:href="#DejaVuSans-20" transform="translate(132.324219 0)"/>
      <use xlink:href="#DejaVuSans-41" transform="translate(164.111328 0)"/>
      <use xlink:href="#DejaVuSans-43" transform="translate(230.769531 0)"/>
     </g>
    </g>
    <g id="patch_132">
     <path d="M 279.734375 57.895926 
L 299.734375 57.895926 
L 299.734375 50.895926 
L 279.734375 50.895926 
z
" style="fill: #32a9de"/>
    </g>
    <g id="text_17">
     <!-- MF AC -->
     <g transform="translate(307.734375 57.895926) scale(0.1 -0.1)">
      <defs>
       <path id="DejaVuSans-4d" d="M 628 4666 
L 1569 4666 
L 2759 1491 
L 3956 4666 
L 4897 4666 
L 4897 0 
L 4281 0 
L 4281 4097 
L 3078 897 
L 2444 897 
L 1241 4097 
L 1241 0 
L 628 0 
L 628 4666 
z
" transform="scale(0.015625)"/>
      </defs>
      <use xlink:href="#DejaVuSans-4d"/>
      <use xlink:href="#DejaVuSans-46" transform="translate(86.279297 0)"/>
      <use xlink:href="#DejaVuSans-20" transform="translate(143.798828 0)"/>
      <use xlink:href="#DejaVuSans-41" transform="translate(175.585938 0)"/>
      <use xlink:href="#DejaVuSans-43" transform="translate(242.244141 0)"/>
     </g>
    </g>
    <g id="patch_133">
     <path d="M 279.734375 72.574051 
L 299.734375 72.574051 
L 299.734375 65.574051 
L 279.734375 65.574051 
z
" style="fill: #b1def2"/>
    </g>
    <g id="text_18">
     <!-- WF AC -->
     <g transform="translate(307.734375 72.574051) scale(0.1 -0.1)">
      <defs>
       <path id="DejaVuSans-57" d="M 213 4666 
L 850 4666 
L 1831 722 
L 2809 4666 
L 3519 4666 
L 4500 722 
L 5478 4666 
L 6119 4666 
L 4947 0 
L 4153 0 
L 3169 4050 
L 2175 0 
L 1381 0 
L 213 4666 
z
" transform="scale(0.015625)"/>
      </defs>
      <use xlink:href="#DejaVuSans-57"/>
      <use xlink:href="#DejaVuSans-46" transform="translate(98.876953 0)"/>
      <use xlink:href="#DejaVuSans-20" transform="translate(156.396484 0)"/>
      <use xlink:href="#DejaVuSans-41" transform="translate(188.183594 0)"/>
      <use xlink:href="#DejaVuSans-43" transform="translate(254.841797 0)"/>
     </g>
    </g>
    <g id="patch_134">
     <path d="M 279.734375 87.252176 
L 299.734375 87.252176 
L 299.734375 80.252176 
L 279.734375 80.252176 
z
" style="fill: #da3b3c"/>
    </g>
    <g id="text_19">
     <!-- RGC -->
     <g transform="translate(307.734375 87.252176) scale(0.1 -0.1)">
      <defs>
       <path id="DejaVuSans-52" d="M 2841 2188 
Q 3044 2119 3236 1894 
Q 3428 1669 3622 1275 
L 4263 0 
L 3584 0 
L 2988 1197 
Q 2756 1666 2539 1819 
Q 2322 1972 1947 1972 
L 1259 1972 
L 1259 0 
L 628 0 
L 628 4666 
L 2053 4666 
Q 2853 4666 3247 4331 
Q 3641 3997 3641 3322 
Q 3641 2881 3436 2590 
Q 3231 2300 2841 2188 
z
M 1259 4147 
L 1259 2491 
L 2053 2491 
Q 2509 2491 2742 2702 
Q 2975 2913 2975 3322 
Q 2975 3731 2742 3939 
Q 2509 4147 2053 4147 
L 1259 4147 
z
" transform="scale(0.015625)"/>
       <path id="DejaVuSans-47" d="M 3809 666 
L 3809 1919 
L 2778 1919 
L 2778 2438 
L 4434 2438 
L 4434 434 
Q 4069 175 3628 42 
Q 3188 -91 2688 -91 
Q 1594 -91 976 548 
Q 359 1188 359 2328 
Q 359 3472 976 4111 
Q 1594 4750 2688 4750 
Q 3144 4750 3555 4637 
Q 3966 4525 4313 4306 
L 4313 3634 
Q 3963 3931 3569 4081 
Q 3175 4231 2741 4231 
Q 1884 4231 1454 3753 
Q 1025 3275 1025 2328 
Q 1025 1384 1454 906 
Q 1884 428 2741 428 
Q 3075 428 3337 486 
Q 3600 544 3809 666 
z
" transform="scale(0.015625)"/>
      </defs>
      <use xlink:href="#DejaVuSans-52"/>
      <use xlink:href="#DejaVuSans-47" transform="translate(69.482422 0)"/>
      <use xlink:href="#DejaVuSans-43" transform="translate(146.972656 0)"/>
     </g>
    </g>
   </g>
  </g>
 </g>
 <defs>
  <clipPath id="p4628394078">
   <rect x="57.17" y="11.941239" width="292.03" height="162.098761"/>
  </clipPath>
 </defs>
</svg>
