<?xml version="1.0" encoding="utf-8" standalone="no"?>
<!DOCTYPE svg PUBLIC "-//W3C//DTD SVG 1.1//EN"
  "http://www.w3.org/Graphics/SVG/1.1/DTD/svg11.dtd">
<svg xmlns:xlink="http://www.w3.org/1999/xlink" width="360pt" height="216pt" viewBox="0 0 360 216" xmlns="http://www.w3.org/2000/svg" version="1.1">
 <metadata>
  <rdf:RDF xmlns:dc="http://purl.org/dc/elements/1.1/" xmlns:cc="http://creativecommons.org/ns#" xmlns:rdf="http://www.w3.org/1999/02/22-rdf-syntax-ns#">
   <cc:Work>
    <dc:type rdf:resource="http://purl.org/dc/dcmitype/StillImage"/>
    <dc:date>2026-05-29T12:15:04.672825</dc:date>
    <dc:format>image/svg+xml</dc:format>
    <dc:creator>
     <cc:Agent>
      <dc:title>Matplotlib v3.10.9, https://matplotlib.org/</dc:title>
     </cc:Agent>
    </dc:creator>
   </cc:Work>
  </rdf:RDF>
 </metadata>
 <defs>
  <style type="text/css">*{stroke-linejoin: round; stroke-linecap: butt}</style>
 </defs>
 <g id="figure_1">
  <g id="patch_1">
   <path d="M 0 216 
L 360 216 
L 360 0 
L 0 0 
z
" style="fill: #ffffff"/>
  </g>
  <g id="axes_1">
   <g id="patch_2">
    <path d="M 57.17 162.376 
L 339.705 162.376 
L 339.705 10.8 
L 57.17 10.8 
z
" style="fill: #ffffff"/>
   </g>
   <g id="patch_3">
    <path d="M 70.624048 162.376 
L 81.835754 162.376 
L 81.835754 150.038566 
L 70.624048 150.038566 
z
" clip-path="url(#p55bf2e3203)" style="fill: #da3b3c"/>
   </g>
   <g id="patch_4">
    <path d="M 81.835754 162.376 
L 93.04746 162.376 
L 93.04746 151.757716 
L 81.835754 151.757716 
z
" clip-path="url(#p55bf2e3203)" style="fill: #da3b3c"/>
   </g>
   <g id="patch_5">
    <path d="M 93.04746 162.376 
L 104.259167 162.376 
L 104.259167 151.909406 
L 93.04746 151.909406 
z
" clip-path="url(#p55bf2e3203)" style="fill: #da3b3c"/>
   </g>
   <g id="patch_6">
    <path d="M 104.259167 162.376 
L 115.470873 162.376 
L 115.470873 149.836313 
L 104.259167 149.836313 
z
" clip-path="url(#p55bf2e3203)" style="fill: #da3b3c"/>
   </g>
   <g id="patch_7">
    <path d="M 115.470873 162.376 
L 126.682579 162.376 
L 126.682579 151.049831 
L 115.470873 151.049831 
z
" clip-path="url(#p55bf2e3203)" style="fill: #da3b3c"/>
   </g>
   <g id="patch_8">
    <path d="M 126.682579 162.376 
L 137.894286 162.376 
L 137.894286 150.948704 
L 126.682579 150.948704 
z
" clip-path="url(#p55bf2e3203)" style="fill: #da3b3c"/>
   </g>
   <g id="patch_9">
    <path d="M 137.894286 162.376 
L 149.105992 162.376 
L 149.105992 151.555463 
L 137.894286 151.555463 
z
" clip-path="url(#p55bf2e3203)" style="fill: #da3b3c"/>
   </g>
   <g id="patch_10">
    <path d="M 149.105992 162.376 
L 160.317698 162.376 
L 160.317698 151.757716 
L 149.105992 151.757716 
z
" clip-path="url(#p55bf2e3203)" style="fill: #da3b3c"/>
   </g>
   <g id="patch_11">
    <path d="M 160.317698 162.376 
L 171.529405 162.376 
L 171.529405 153.426304 
L 160.317698 153.426304 
z
" clip-path="url(#p55bf2e3203)" style="fill: #da3b3c"/>
   </g>
   <g id="patch_12">
    <path d="M 171.529405 162.376 
L 182.741111 162.376 
L 182.741111 153.67912 
L 171.529405 153.67912 
z
" clip-path="url(#p55bf2e3203)" style="fill: #da3b3c"/>
   </g>
   <g id="patch_13">
    <path d="M 182.741111 162.376 
L 193.952817 162.376 
L 193.952817 153.476867 
L 182.741111 153.476867 
z
" clip-path="url(#p55bf2e3203)" style="fill: #da3b3c"/>
   </g>
   <g id="patch_14">
    <path d="M 193.952817 162.376 
L 205.164524 162.376 
L 205.164524 155.347707 
L 193.952817 155.347707 
z
" clip-path="url(#p55bf2e3203)" style="fill: #da3b3c"/>
   </g>
   <g id="patch_15">
    <path d="M 205.164524 162.376 
L 216.37623 162.376 
L 216.37623 155.802777 
L 205.164524 155.802777 
z
" clip-path="url(#p55bf2e3203)" style="fill: #da3b3c"/>
   </g>
   <g id="patch_16">
    <path d="M 216.37623 162.376 
L 227.587937 162.376 
L 227.587937 155.600524 
L 216.37623 155.600524 
z
" clip-path="url(#p55bf2e3203)" style="fill: #da3b3c"/>
   </g>
   <g id="patch_17">
    <path d="M 227.587937 162.376 
L 238.799643 162.376 
L 238.799643 156.662352 
L 227.587937 156.662352 
z
" clip-path="url(#p55bf2e3203)" style="fill: #da3b3c"/>
   </g>
   <g id="patch_18">
    <path d="M 238.799643 162.376 
L 250.011349 162.376 
L 250.011349 157.521927 
L 238.799643 157.521927 
z
" clip-path="url(#p55bf2e3203)" style="fill: #da3b3c"/>
   </g>
   <g id="patch_19">
    <path d="M 250.011349 162.376 
L 261.223056 162.376 
L 261.223056 157.117421 
L 250.011349 157.117421 
z
" clip-path="url(#p55bf2e3203)" style="fill: #da3b3c"/>
   </g>
   <g id="patch_20">
    <path d="M 261.223056 162.376 
L 272.434762 162.376 
L 272.434762 157.926433 
L 261.223056 157.926433 
z
" clip-path="url(#p55bf2e3203)" style="fill: #da3b3c"/>
   </g>
   <g id="patch_21">
    <path d="M 272.434762 162.376 
L 283.646468 162.376 
L 283.646468 158.735446 
L 272.434762 158.735446 
z
" clip-path="url(#p55bf2e3203)" style="fill: #da3b3c"/>
   </g>
   <g id="patch_22">
    <path d="M 283.646468 162.376 
L 294.858175 162.376 
L 294.858175 159.190515 
L 283.646468 159.190515 
z
" clip-path="url(#p55bf2e3203)" style="fill: #da3b3c"/>
   </g>
   <g id="patch_23">
    <path d="M 294.858175 162.376 
L 306.069881 162.376 
L 306.069881 159.392768 
L 294.858175 159.392768 
z
" clip-path="url(#p55bf2e3203)" style="fill: #da3b3c"/>
   </g>
   <g id="patch_24">
    <path d="M 306.069881 162.376 
L 317.281587 162.376 
L 317.281587 159.342205 
L 306.069881 159.342205 
z
" clip-path="url(#p55bf2e3203)" style="fill: #da3b3c"/>
   </g>
   <g id="patch_25">
    <path d="M 317.281587 162.376 
L 328.493294 162.376 
L 328.493294 159.797274 
L 317.281587 159.797274 
z
" clip-path="url(#p55bf2e3203)" style="fill: #da3b3c"/>
   </g>
   <g id="patch_26">
    <path d="M 328.493294 162.376 
L 339.705 162.376 
L 339.705 159.595021 
L 328.493294 159.595021 
z
" clip-path="url(#p55bf2e3203)" style="fill: #da3b3c"/>
   </g>
   <g id="patch_27">
    <path d="M 70.624048 150.038566 
L 81.835754 150.038566 
L 81.835754 135.425785 
L 70.624048 135.425785 
z
" clip-path="url(#p55bf2e3203)" style="fill: #b1def2"/>
   </g>
   <g id="patch_28">
    <path d="M 81.835754 151.757716 
L 93.04746 151.757716 
L 93.04746 140.027041 
L 81.835754 140.027041 
z
" clip-path="url(#p55bf2e3203)" style="fill: #b1def2"/>
   </g>
   <g id="patch_29">
    <path d="M 93.04746 151.909406 
L 104.259167 151.909406 
L 104.259167 139.268592 
L 93.04746 139.268592 
z
" clip-path="url(#p55bf2e3203)" style="fill: #b1def2"/>
   </g>
   <g id="patch_30">
    <path d="M 104.259167 149.836313 
L 115.470873 149.836313 
L 115.470873 140.836053 
L 104.259167 140.836053 
z
" clip-path="url(#p55bf2e3203)" style="fill: #b1def2"/>
   </g>
   <g id="patch_31">
    <path d="M 115.470873 151.049831 
L 126.682579 151.049831 
L 126.682579 143.060836 
L 115.470873 143.060836 
z
" clip-path="url(#p55bf2e3203)" style="fill: #b1def2"/>
   </g>
   <g id="patch_32">
    <path d="M 126.682579 150.948704 
L 137.894286 150.948704 
L 137.894286 143.010273 
L 126.682579 143.010273 
z
" clip-path="url(#p55bf2e3203)" style="fill: #b1def2"/>
   </g>
   <g id="patch_33">
    <path d="M 137.894286 151.555463 
L 149.105992 151.555463 
L 149.105992 145.28562 
L 137.894286 145.28562 
z
" clip-path="url(#p55bf2e3203)" style="fill: #b1def2"/>
   </g>
   <g id="patch_34">
    <path d="M 149.105992 151.757716 
L 160.317698 151.757716 
L 160.317698 145.892379 
L 149.105992 145.892379 
z
" clip-path="url(#p55bf2e3203)" style="fill: #b1def2"/>
   </g>
   <g id="patch_35">
    <path d="M 160.317698 153.426304 
L 171.529405 153.426304 
L 171.529405 148.521668 
L 160.317698 148.521668 
z
" clip-path="url(#p55bf2e3203)" style="fill: #b1def2"/>
   </g>
   <g id="patch_36">
    <path d="M 171.529405 153.67912 
L 182.741111 153.67912 
L 182.741111 149.431807 
L 171.529405 149.431807 
z
" clip-path="url(#p55bf2e3203)" style="fill: #b1def2"/>
   </g>
   <g id="patch_37">
    <path d="M 182.741111 153.476867 
L 193.952817 153.476867 
L 193.952817 149.17899 
L 182.741111 149.17899 
z
" clip-path="url(#p55bf2e3203)" style="fill: #b1def2"/>
   </g>
   <g id="patch_38">
    <path d="M 193.952817 155.347707 
L 205.164524 155.347707 
L 205.164524 151.707153 
L 193.952817 151.707153 
z
" clip-path="url(#p55bf2e3203)" style="fill: #b1def2"/>
   </g>
   <g id="patch_39">
    <path d="M 205.164524 155.802777 
L 216.37623 155.802777 
L 216.37623 151.606027 
L 205.164524 151.606027 
z
" clip-path="url(#p55bf2e3203)" style="fill: #b1def2"/>
   </g>
   <g id="patch_40">
    <path d="M 216.37623 155.600524 
L 227.587937 155.600524 
L 227.587937 152.364475 
L 216.37623 152.364475 
z
" clip-path="url(#p55bf2e3203)" style="fill: #b1def2"/>
   </g>
   <g id="patch_41">
    <path d="M 227.587937 156.662352 
L 238.799643 156.662352 
L 238.799643 154.134189 
L 227.587937 154.134189 
z
" clip-path="url(#p55bf2e3203)" style="fill: #b1def2"/>
   </g>
   <g id="patch_42">
    <path d="M 238.799643 157.521927 
L 250.011349 157.521927 
L 250.011349 154.589259 
L 238.799643 154.589259 
z
" clip-path="url(#p55bf2e3203)" style="fill: #b1def2"/>
   </g>
   <g id="patch_43">
    <path d="M 250.011349 157.117421 
L 261.223056 157.117421 
L 261.223056 154.943201 
L 250.011349 154.943201 
z
" clip-path="url(#p55bf2e3203)" style="fill: #b1def2"/>
   </g>
   <g id="patch_44">
    <path d="M 261.223056 157.926433 
L 272.434762 157.926433 
L 272.434762 155.094891 
L 261.223056 155.094891 
z
" clip-path="url(#p55bf2e3203)" style="fill: #b1def2"/>
   </g>
   <g id="patch_45">
    <path d="M 272.434762 158.735446 
L 283.646468 158.735446 
L 283.646468 156.00503 
L 272.434762 156.00503 
z
" clip-path="url(#p55bf2e3203)" style="fill: #b1def2"/>
   </g>
   <g id="patch_46">
    <path d="M 283.646468 159.190515 
L 294.858175 159.190515 
L 294.858175 156.965732 
L 283.646468 156.965732 
z
" clip-path="url(#p55bf2e3203)" style="fill: #b1def2"/>
   </g>
   <g id="patch_47">
    <path d="M 294.858175 159.392768 
L 306.069881 159.392768 
L 306.069881 156.763479 
L 294.858175 156.763479 
z
" clip-path="url(#p55bf2e3203)" style="fill: #b1def2"/>
   </g>
   <g id="patch_48">
    <path d="M 306.069881 159.342205 
L 317.281587 159.342205 
L 317.281587 157.167985 
L 306.069881 157.167985 
z
" clip-path="url(#p55bf2e3203)" style="fill: #b1def2"/>
   </g>
   <g id="patch_49">
    <path d="M 317.281587 159.797274 
L 328.493294 159.797274 
L 328.493294 158.128687 
L 317.281587 158.128687 
z
" clip-path="url(#p55bf2e3203)" style="fill: #b1def2"/>
   </g>
   <g id="patch_50">
    <path d="M 328.493294 159.595021 
L 339.705 159.595021 
L 339.705 157.774744 
L 328.493294 157.774744 
z
" clip-path="url(#p55bf2e3203)" style="fill: #b1def2"/>
   </g>
   <g id="patch_51">
    <path d="M 70.624048 135.425785 
L 81.835754 135.425785 
L 81.835754 114.69485 
L 70.624048 114.69485 
z
" clip-path="url(#p55bf2e3203)" style="fill: #32a9de"/>
   </g>
   <g id="patch_52">
    <path d="M 81.835754 140.027041 
L 93.04746 140.027041 
L 93.04746 126.425525 
L 81.835754 126.425525 
z
" clip-path="url(#p55bf2e3203)" style="fill: #32a9de"/>
   </g>
   <g id="patch_53">
    <path d="M 93.04746 139.268592 
L 104.259167 139.268592 
L 104.259167 126.273835 
L 93.04746 126.273835 
z
" clip-path="url(#p55bf2e3203)" style="fill: #32a9de"/>
   </g>
   <g id="patch_54">
    <path d="M 104.259167 140.836053 
L 115.470873 140.836053 
L 115.470873 125.212007 
L 104.259167 125.212007 
z
" clip-path="url(#p55bf2e3203)" style="fill: #32a9de"/>
   </g>
   <g id="patch_55">
    <path d="M 115.470873 143.060836 
L 126.682579 143.060836 
L 126.682579 127.537917 
L 115.470873 127.537917 
z
" clip-path="url(#p55bf2e3203)" style="fill: #32a9de"/>
   </g>
   <g id="patch_56">
    <path d="M 126.682579 143.010273 
L 137.894286 143.010273 
L 137.894286 129.45932 
L 126.682579 129.45932 
z
" clip-path="url(#p55bf2e3203)" style="fill: #32a9de"/>
   </g>
   <g id="patch_57">
    <path d="M 137.894286 145.28562 
L 149.105992 145.28562 
L 149.105992 131.532414 
L 137.894286 131.532414 
z
" clip-path="url(#p55bf2e3203)" style="fill: #32a9de"/>
   </g>
   <g id="patch_58">
    <path d="M 149.105992 145.892379 
L 160.317698 145.892379 
L 160.317698 134.920152 
L 149.105992 134.920152 
z
" clip-path="url(#p55bf2e3203)" style="fill: #32a9de"/>
   </g>
   <g id="patch_59">
    <path d="M 160.317698 148.521668 
L 171.529405 148.521668 
L 171.529405 137.701131 
L 160.317698 137.701131 
z
" clip-path="url(#p55bf2e3203)" style="fill: #32a9de"/>
   </g>
   <g id="patch_60">
    <path d="M 171.529405 149.431807 
L 182.741111 149.431807 
L 182.741111 138.61127 
L 171.529405 138.61127 
z
" clip-path="url(#p55bf2e3203)" style="fill: #32a9de"/>
   </g>
   <g id="patch_61">
    <path d="M 182.741111 149.17899 
L 193.952817 149.17899 
L 193.952817 140.886616 
L 182.741111 140.886616 
z
" clip-path="url(#p55bf2e3203)" style="fill: #32a9de"/>
   </g>
   <g id="patch_62">
    <path d="M 193.952817 151.707153 
L 205.164524 151.707153 
L 205.164524 143.667595 
L 193.952817 143.667595 
z
" clip-path="url(#p55bf2e3203)" style="fill: #32a9de"/>
   </g>
   <g id="patch_63">
    <path d="M 205.164524 151.606027 
L 216.37623 151.606027 
L 216.37623 144.274354 
L 205.164524 144.274354 
z
" clip-path="url(#p55bf2e3203)" style="fill: #32a9de"/>
   </g>
   <g id="patch_64">
    <path d="M 216.37623 152.364475 
L 227.587937 152.364475 
L 227.587937 146.195758 
L 216.37623 146.195758 
z
" clip-path="url(#p55bf2e3203)" style="fill: #32a9de"/>
   </g>
   <g id="patch_65">
    <path d="M 227.587937 154.134189 
L 238.799643 154.134189 
L 238.799643 148.825047 
L 227.587937 148.825047 
z
" clip-path="url(#p55bf2e3203)" style="fill: #32a9de"/>
   </g>
   <g id="patch_66">
    <path d="M 238.799643 154.589259 
L 250.011349 154.589259 
L 250.011349 148.976737 
L 238.799643 148.976737 
z
" clip-path="url(#p55bf2e3203)" style="fill: #32a9de"/>
   </g>
   <g id="patch_67">
    <path d="M 250.011349 154.943201 
L 261.223056 154.943201 
L 261.223056 149.937439 
L 250.011349 149.937439 
z
" clip-path="url(#p55bf2e3203)" style="fill: #32a9de"/>
   </g>
   <g id="patch_68">
    <path d="M 261.223056 155.094891 
L 272.434762 155.094891 
L 272.434762 151.454337 
L 261.223056 151.454337 
z
" clip-path="url(#p55bf2e3203)" style="fill: #32a9de"/>
   </g>
   <g id="patch_69">
    <path d="M 272.434762 156.00503 
L 283.646468 156.00503 
L 283.646468 152.313912 
L 272.434762 152.313912 
z
" clip-path="url(#p55bf2e3203)" style="fill: #32a9de"/>
   </g>
   <g id="patch_70">
    <path d="M 283.646468 156.965732 
L 294.858175 156.965732 
L 294.858175 153.476867 
L 283.646468 153.476867 
z
" clip-path="url(#p55bf2e3203)" style="fill: #32a9de"/>
   </g>
   <g id="patch_71">
    <path d="M 294.858175 156.763479 
L 306.069881 156.763479 
L 306.069881 152.415039 
L 294.858175 152.415039 
z
" clip-path="url(#p55bf2e3203)" style="fill: #32a9de"/>
   </g>
   <g id="patch_72">
    <path d="M 306.069881 157.167985 
L 317.281587 157.167985 
L 317.281587 153.931936 
L 306.069881 153.931936 
z
" clip-path="url(#p55bf2e3203)" style="fill: #32a9de"/>
   </g>
   <g id="patch_73">
    <path d="M 317.281587 158.128687 
L 328.493294 158.128687 
L 328.493294 156.308409 
L 317.281587 156.308409 
z
" clip-path="url(#p55bf2e3203)" style="fill: #32a9de"/>
   </g>
   <g id="patch_74">
    <path d="M 328.493294 157.774744 
L 339.705 157.774744 
L 339.705 155.903903 
L 328.493294 155.903903 
z
" clip-path="url(#p55bf2e3203)" style="fill: #32a9de"/>
   </g>
   <g id="patch_75">
    <path d="M 70.624048 114.69485 
L 81.835754 114.69485 
L 81.835754 75.609453 
L 70.624048 75.609453 
z
" clip-path="url(#p55bf2e3203)" style="fill: #1d74b9"/>
   </g>
   <g id="patch_76">
    <path d="M 81.835754 126.425525 
L 93.04746 126.425525 
L 93.04746 107.009235 
L 81.835754 107.009235 
z
" clip-path="url(#p55bf2e3203)" style="fill: #1d74b9"/>
   </g>
   <g id="patch_77">
    <path d="M 93.04746 126.273835 
L 104.259167 126.273835 
L 104.259167 103.570934 
L 93.04746 103.570934 
z
" clip-path="url(#p55bf2e3203)" style="fill: #1d74b9"/>
   </g>
   <g id="patch_78">
    <path d="M 104.259167 125.212007 
L 115.470873 125.212007 
L 115.470873 104.936141 
L 104.259167 104.936141 
z
" clip-path="url(#p55bf2e3203)" style="fill: #1d74b9"/>
   </g>
   <g id="patch_79">
    <path d="M 115.470873 127.537917 
L 126.682579 127.537917 
L 126.682579 107.110361 
L 115.470873 107.110361 
z
" clip-path="url(#p55bf2e3203)" style="fill: #1d74b9"/>
   </g>
   <g id="patch_80">
    <path d="M 126.682579 129.45932 
L 137.894286 129.45932 
L 137.894286 112.975699 
L 126.682579 112.975699 
z
" clip-path="url(#p55bf2e3203)" style="fill: #1d74b9"/>
   </g>
   <g id="patch_81">
    <path d="M 137.894286 131.532414 
L 149.105992 131.532414 
L 149.105992 117.324139 
L 137.894286 117.324139 
z
" clip-path="url(#p55bf2e3203)" style="fill: #1d74b9"/>
   </g>
   <g id="patch_82">
    <path d="M 149.105992 134.920152 
L 160.317698 134.920152 
L 160.317698 123.644546 
L 149.105992 123.644546 
z
" clip-path="url(#p55bf2e3203)" style="fill: #1d74b9"/>
   </g>
   <g id="patch_83">
    <path d="M 160.317698 137.701131 
L 171.529405 137.701131 
L 171.529405 127.689607 
L 160.317698 127.689607 
z
" clip-path="url(#p55bf2e3203)" style="fill: #1d74b9"/>
   </g>
   <g id="patch_84">
    <path d="M 171.529405 138.61127 
L 182.741111 138.61127 
L 182.741111 131.532414 
L 171.529405 131.532414 
z
" clip-path="url(#p55bf2e3203)" style="fill: #1d74b9"/>
   </g>
   <g id="patch_85">
    <path d="M 182.741111 140.886616 
L 193.952817 140.886616 
L 193.952817 133.95945 
L 182.741111 133.95945 
z
" clip-path="url(#p55bf2e3203)" style="fill: #1d74b9"/>
   </g>
   <g id="patch_86">
    <path d="M 193.952817 143.667595 
L 205.164524 143.667595 
L 205.164524 136.487613 
L 193.952817 136.487613 
z
" clip-path="url(#p55bf2e3203)" style="fill: #1d74b9"/>
   </g>
   <g id="patch_87">
    <path d="M 205.164524 144.274354 
L 216.37623 144.274354 
L 216.37623 139.319155 
L 205.164524 139.319155 
z
" clip-path="url(#p55bf2e3203)" style="fill: #1d74b9"/>
   </g>
   <g id="patch_88">
    <path d="M 216.37623 146.195758 
L 227.587937 146.195758 
L 227.587937 142.50464 
L 216.37623 142.50464 
z
" clip-path="url(#p55bf2e3203)" style="fill: #1d74b9"/>
   </g>
   <g id="patch_89">
    <path d="M 227.587937 148.825047 
L 238.799643 148.825047 
L 238.799643 145.892379 
L 227.587937 145.892379 
z
" clip-path="url(#p55bf2e3203)" style="fill: #1d74b9"/>
   </g>
   <g id="patch_90">
    <path d="M 238.799643 148.976737 
L 250.011349 148.976737 
L 250.011349 146.903644 
L 238.799643 146.903644 
z
" clip-path="url(#p55bf2e3203)" style="fill: #1d74b9"/>
   </g>
   <g id="patch_91">
    <path d="M 250.011349 149.937439 
L 261.223056 149.937439 
L 261.223056 148.066599 
L 250.011349 148.066599 
z
" clip-path="url(#p55bf2e3203)" style="fill: #1d74b9"/>
   </g>
   <g id="patch_92">
    <path d="M 261.223056 151.454337 
L 272.434762 151.454337 
L 272.434762 148.926174 
L 261.223056 148.926174 
z
" clip-path="url(#p55bf2e3203)" style="fill: #1d74b9"/>
   </g>
   <g id="patch_93">
    <path d="M 272.434762 152.313912 
L 283.646468 152.313912 
L 283.646468 150.797014 
L 272.434762 150.797014 
z
" clip-path="url(#p55bf2e3203)" style="fill: #1d74b9"/>
   </g>
   <g id="patch_94">
    <path d="M 283.646468 153.476867 
L 294.858175 153.476867 
L 294.858175 151.858843 
L 283.646468 151.858843 
z
" clip-path="url(#p55bf2e3203)" style="fill: #1d74b9"/>
   </g>
   <g id="patch_95">
    <path d="M 294.858175 152.415039 
L 306.069881 152.415039 
L 306.069881 150.847578 
L 294.858175 150.847578 
z
" clip-path="url(#p55bf2e3203)" style="fill: #1d74b9"/>
   </g>
   <g id="patch_96">
    <path d="M 306.069881 153.931936 
L 317.281587 153.931936 
L 317.281587 152.364475 
L 306.069881 152.364475 
z
" clip-path="url(#p55bf2e3203)" style="fill: #1d74b9"/>
   </g>
   <g id="patch_97">
    <path d="M 317.281587 156.308409 
L 328.493294 156.308409 
L 328.493294 155.651087 
L 317.281587 155.651087 
z
" clip-path="url(#p55bf2e3203)" style="fill: #1d74b9"/>
   </g>
   <g id="patch_98">
    <path d="M 328.493294 155.903903 
L 339.705 155.903903 
L 339.705 155.094891 
L 328.493294 155.094891 
z
" clip-path="url(#p55bf2e3203)" style="fill: #1d74b9"/>
   </g>
   <g id="patch_99">
    <path d="M 70.624048 75.609453 
L 81.835754 75.609453 
L 81.835754 18.017905 
L 70.624048 18.017905 
z
" clip-path="url(#p55bf2e3203)" style="fill: #109e71"/>
   </g>
   <g id="patch_100">
    <path d="M 81.835754 107.009235 
L 93.04746 107.009235 
L 93.04746 87.845761 
L 81.835754 87.845761 
z
" clip-path="url(#p55bf2e3203)" style="fill: #109e71"/>
   </g>
   <g id="patch_101">
    <path d="M 93.04746 103.570934 
L 104.259167 103.570934 
L 104.259167 94.469547 
L 93.04746 94.469547 
z
" clip-path="url(#p55bf2e3203)" style="fill: #109e71"/>
   </g>
   <g id="patch_102">
    <path d="M 104.259167 104.936141 
L 115.470873 104.936141 
L 115.470873 100.537138 
L 104.259167 100.537138 
z
" clip-path="url(#p55bf2e3203)" style="fill: #109e71"/>
   </g>
   <g id="patch_103">
    <path d="M 115.470873 107.110361 
L 126.682579 107.110361 
L 126.682579 105.542901 
L 115.470873 105.542901 
z
" clip-path="url(#p55bf2e3203)" style="fill: #109e71"/>
   </g>
   <g id="patch_104">
    <path d="M 126.682579 112.975699 
L 137.894286 112.975699 
L 137.894286 112.014997 
L 126.682579 112.014997 
z
" clip-path="url(#p55bf2e3203)" style="fill: #109e71"/>
   </g>
   <g id="patch_105">
    <path d="M 137.894286 117.324139 
L 149.105992 117.324139 
L 149.105992 116.616254 
L 137.894286 116.616254 
z
" clip-path="url(#p55bf2e3203)" style="fill: #109e71"/>
   </g>
   <g id="patch_106">
    <path d="M 149.105992 123.644546 
L 160.317698 123.644546 
L 160.317698 123.492856 
L 149.105992 123.492856 
z
" clip-path="url(#p55bf2e3203)" style="fill: #109e71"/>
   </g>
   <g id="patch_107">
    <path d="M 160.317698 127.689607 
L 171.529405 127.689607 
L 171.529405 127.639043 
L 160.317698 127.639043 
z
" clip-path="url(#p55bf2e3203)" style="fill: #109e71"/>
   </g>
   <g id="patch_108">
    <path d="M 171.529405 131.532414 
L 182.741111 131.532414 
L 182.741111 131.330161 
L 171.529405 131.330161 
z
" clip-path="url(#p55bf2e3203)" style="fill: #109e71"/>
   </g>
   <g id="patch_109">
    <path d="M 182.741111 133.95945 
L 193.952817 133.95945 
L 193.952817 133.80776 
L 182.741111 133.80776 
z
" clip-path="url(#p55bf2e3203)" style="fill: #109e71"/>
   </g>
   <g id="patch_110">
    <path d="M 193.952817 136.487613 
L 205.164524 136.487613 
L 205.164524 136.43705 
L 193.952817 136.43705 
z
" clip-path="url(#p55bf2e3203)" style="fill: #109e71"/>
   </g>
   <g id="patch_111">
    <path d="M 205.164524 139.319155 
L 216.37623 139.319155 
L 216.37623 139.167466 
L 205.164524 139.167466 
z
" clip-path="url(#p55bf2e3203)" style="fill: #109e71"/>
   </g>
   <g id="patch_112">
    <path d="M 216.37623 142.50464 
L 227.587937 142.50464 
L 227.587937 142.50464 
L 216.37623 142.50464 
z
" clip-path="url(#p55bf2e3203)" style="fill: #109e71"/>
   </g>
   <g id="patch_113">
    <path d="M 227.587937 145.892379 
L 238.799643 145.892379 
L 238.799643 145.892379 
L 227.587937 145.892379 
z
" clip-path="url(#p55bf2e3203)" style="fill: #109e71"/>
   </g>
   <g id="patch_114">
    <path d="M 238.799643 146.903644 
L 250.011349 146.903644 
L 250.011349 146.903644 
L 238.799643 146.903644 
z
" clip-path="url(#p55bf2e3203)" style="fill: #109e71"/>
   </g>
   <g id="patch_115">
    <path d="M 250.011349 148.066599 
L 261.223056 148.066599 
L 261.223056 148.066599 
L 250.011349 148.066599 
z
" clip-path="url(#p55bf2e3203)" style="fill: #109e71"/>
   </g>
   <g id="patch_116">
    <path d="M 261.223056 148.926174 
L 272.434762 148.926174 
L 272.434762 148.926174 
L 261.223056 148.926174 
z
" clip-path="url(#p55bf2e3203)" style="fill: #109e71"/>
   </g>
   <g id="patch_117">
    <path d="M 272.434762 150.797014 
L 283.646468 150.797014 
L 283.646468 150.797014 
L 272.434762 150.797014 
z
" clip-path="url(#p55bf2e3203)" style="fill: #109e71"/>
   </g>
   <g id="patch_118">
    <path d="M 283.646468 151.858843 
L 294.858175 151.858843 
L 294.858175 151.858843 
L 283.646468 151.858843 
z
" clip-path="url(#p55bf2e3203)" style="fill: #109e71"/>
   </g>
   <g id="patch_119">
    <path d="M 294.858175 150.847578 
L 306.069881 150.847578 
L 306.069881 150.847578 
L 294.858175 150.847578 
z
" clip-path="url(#p55bf2e3203)" style="fill: #109e71"/>
   </g>
   <g id="patch_120">
    <path d="M 306.069881 152.364475 
L 317.281587 152.364475 
L 317.281587 152.364475 
L 306.069881 152.364475 
z
" clip-path="url(#p55bf2e3203)" style="fill: #109e71"/>
   </g>
   <g id="patch_121">
    <path d="M 317.281587 155.651087 
L 328.493294 155.651087 
L 328.493294 155.651087 
L 317.281587 155.651087 
z
" clip-path="url(#p55bf2e3203)" style="fill: #109e71"/>
   </g>
   <g id="patch_122">
    <path d="M 328.493294 155.094891 
L 339.705 155.094891 
L 339.705 155.094891 
L 328.493294 155.094891 
z
" clip-path="url(#p55bf2e3203)" style="fill: #109e71"/>
   </g>
   <g id="matplotlib.axis_1">
    <g id="xtick_1">
     <g id="line2d_1">
      <defs>
       <path id="m1e03226a92" d="M 0 0 
L 0 3.5 
" style="stroke: #000000; stroke-width: 0.8"/>
      </defs>
      <g>
       <use xlink:href="#m1e03226a92" x="70.624048" y="162.376" style="stroke: #000000; stroke-width: 0.8"/>
      </g>
     </g>
     <g id="text_1">
      <!-- 0 -->
      <g transform="translate(67.442798 176.974437) scale(0.1 -0.1)">
       <defs>
        <path id="DejaVuSans-30" d="M 2034 4250 
Q 1547 4250 1301 3770 
Q 1056 3291 1056 2328 
Q 1056 1369 1301 889 
Q 1547 409 2034 409 
Q 2525 409 2770 889 
Q 3016 1369 3016 2328 
Q 3016 3291 2770 3770 
Q 2525 4250 2034 4250 
z
M 2034 4750 
Q 2819 4750 3233 4129 
Q 3647 3509 3647 2328 
Q 3647 1150 3233 529 
Q 2819 -91 2034 -91 
Q 1250 -91 836 529 
Q 422 1150 422 2328 
Q 422 3509 836 4129 
Q 1250 4750 2034 4750 
z
" transform="scale(0.015625)"/>
       </defs>
       <use xlink:href="#DejaVuSans-30"/>
      </g>
     </g>
    </g>
    <g id="xtick_2">
     <g id="line2d_2">
      <g>
       <use xlink:href="#m1e03226a92" x="124.440238" y="162.376" style="stroke: #000000; stroke-width: 0.8"/>
      </g>
     </g>
     <g id="text_2">
      <!-- 20 -->
      <g transform="translate(118.077738 176.974437) scale(0.1 -0.1)">
       <defs>
        <path id="DejaVuSans-32" d="M 1228 531 
L 3431 531 
L 3431 0 
L 469 0 
L 469 531 
Q 828 903 1448 1529 
Q 2069 2156 2228 2338 
Q 2531 2678 2651 2914 
Q 2772 3150 2772 3378 
Q 2772 3750 2511 3984 
Q 2250 4219 1831 4219 
Q 1534 4219 1204 4116 
Q 875 4013 500 3803 
L 500 4441 
Q 881 4594 1212 4672 
Q 1544 4750 1819 4750 
Q 2544 4750 2975 4387 
Q 3406 4025 3406 3419 
Q 3406 3131 3298 2873 
Q 3191 2616 2906 2266 
Q 2828 2175 2409 1742 
Q 1991 1309 1228 531 
z
" transform="scale(0.015625)"/>
       </defs>
       <use xlink:href="#DejaVuSans-32"/>
       <use xlink:href="#DejaVuSans-30" transform="translate(63.623047 0)"/>
      </g>
     </g>
    </g>
    <g id="xtick_3">
     <g id="line2d_3">
      <g>
       <use xlink:href="#m1e03226a92" x="178.256429" y="162.376" style="stroke: #000000; stroke-width: 0.8"/>
      </g>
     </g>
     <g id="text_3">
      <!-- 40 -->
      <g transform="translate(171.893929 176.974437) scale(0.1 -0.1)">
       <defs>
        <path id="DejaVuSans-34" d="M 2419 4116 
L 825 1625 
L 2419 1625 
L 2419 4116 
z
M 2253 4666 
L 3047 4666 
L 3047 1625 
L 3713 1625 
L 3713 1100 
L 3047 1100 
L 3047 0 
L 2419 0 
L 2419 1100 
L 313 1100 
L 313 1709 
L 2253 4666 
z
" transform="scale(0.015625)"/>
       </defs>
       <use xlink:href="#DejaVuSans-34"/>
       <use xlink:href="#DejaVuSans-30" transform="translate(63.623047 0)"/>
      </g>
     </g>
    </g>
    <g id="xtick_4">
     <g id="line2d_4">
      <g>
       <use xlink:href="#m1e03226a92" x="232.072619" y="162.376" style="stroke: #000000; stroke-width: 0.8"/>
      </g>
     </g>
     <g id="text_4">
      <!-- 60 -->
      <g transform="translate(225.710119 176.974437) scale(0.1 -0.1)">
       <defs>
        <path id="DejaVuSans-36" d="M 2113 2584 
Q 1688 2584 1439 2293 
Q 1191 2003 1191 1497 
Q 1191 994 1439 701 
Q 1688 409 2113 409 
Q 2538 409 2786 701 
Q 3034 994 3034 1497 
Q 3034 2003 2786 2293 
Q 2538 2584 2113 2584 
z
M 3366 4563 
L 3366 3988 
Q 3128 4100 2886 4159 
Q 2644 4219 2406 4219 
Q 1781 4219 1451 3797 
Q 1122 3375 1075 2522 
Q 1259 2794 1537 2939 
Q 1816 3084 2150 3084 
Q 2853 3084 3261 2657 
Q 3669 2231 3669 1497 
Q 3669 778 3244 343 
Q 2819 -91 2113 -91 
Q 1303 -91 875 529 
Q 447 1150 447 2328 
Q 447 3434 972 4092 
Q 1497 4750 2381 4750 
Q 2619 4750 2861 4703 
Q 3103 4656 3366 4563 
z
" transform="scale(0.015625)"/>
       </defs>
       <use xlink:href="#DejaVuSans-36"/>
       <use xlink:href="#DejaVuSans-30" transform="translate(63.623047 0)"/>
      </g>
     </g>
    </g>
    <g id="xtick_5">
     <g id="line2d_5">
      <g>
       <use xlink:href="#m1e03226a92" x="285.88881" y="162.376" style="stroke: #000000; stroke-width: 0.8"/>
      </g>
     </g>
     <g id="text_5">
      <!-- 80 -->
      <g transform="translate(279.52631 176.974437) scale(0.1 -0.1)">
       <defs>
        <path id="DejaVuSans-38" d="M 2034 2216 
Q 1584 2216 1326 1975 
Q 1069 1734 1069 1313 
Q 1069 891 1326 650 
Q 1584 409 2034 409 
Q 2484 409 2743 651 
Q 3003 894 3003 1313 
Q 3003 1734 2745 1975 
Q 2488 2216 2034 2216 
z
M 1403 2484 
Q 997 2584 770 2862 
Q 544 3141 544 3541 
Q 544 4100 942 4425 
Q 1341 4750 2034 4750 
Q 2731 4750 3128 4425 
Q 3525 4100 3525 3541 
Q 3525 3141 3298 2862 
Q 3072 2584 2669 2484 
Q 3125 2378 3379 2068 
Q 3634 1759 3634 1313 
Q 3634 634 3220 271 
Q 2806 -91 2034 -91 
Q 1263 -91 848 271 
Q 434 634 434 1313 
Q 434 1759 690 2068 
Q 947 2378 1403 2484 
z
M 1172 3481 
Q 1172 3119 1398 2916 
Q 1625 2713 2034 2713 
Q 2441 2713 2670 2916 
Q 2900 3119 2900 3481 
Q 2900 3844 2670 4047 
Q 2441 4250 2034 4250 
Q 1625 4250 1398 4047 
Q 1172 3844 1172 3481 
z
" transform="scale(0.015625)"/>
       </defs>
       <use xlink:href="#DejaVuSans-38"/>
       <use xlink:href="#DejaVuSans-30" transform="translate(63.623047 0)"/>
      </g>
     </g>
    </g>
    <g id="xtick_6">
     <g id="line2d_6">
      <g>
       <use xlink:href="#m1e03226a92" x="339.705" y="162.376" style="stroke: #000000; stroke-width: 0.8"/>
      </g>
     </g>
     <g id="text_6">
      <!-- 100 -->
      <g transform="translate(330.16125 176.974437) scale(0.1 -0.1)">
       <defs>
        <path id="DejaVuSans-31" d="M 794 531 
L 1825 531 
L 1825 4091 
L 703 3866 
L 703 4441 
L 1819 4666 
L 2450 4666 
L 2450 531 
L 3481 531 
L 3481 0 
L 794 0 
L 794 531 
z
" transform="scale(0.015625)"/>
       </defs>
       <use xlink:href="#DejaVuSans-31"/>
       <use xlink:href="#DejaVuSans-30" transform="translate(63.623047 0)"/>
       <use xlink:href="#DejaVuSans-30" transform="translate(127.246094 0)"/>
      </g>
     </g>
    </g>
    <g id="text_7">
     <!-- Estimated edit time (min) -->
     <g transform="translate(134.185937 190.652562) scale(0.1 -0.1)">
      <defs>
       <path id="DejaVuSans-45" d="M 628 4666 
L 3578 4666 
L 3578 4134 
L 1259 4134 
L 1259 2753 
L 3481 2753 
L 3481 2222 
L 1259 2222 
L 1259 531 
L 3634 531 
L 3634 0 
L 628 0 
L 628 4666 
z
" transform="scale(0.015625)"/>
       <path id="DejaVuSans-73" d="M 2834 3397 
L 2834 2853 
Q 2591 2978 2328 3040 
Q 2066 3103 1784 3103 
Q 1356 3103 1142 2972 
Q 928 2841 928 2578 
Q 928 2378 1081 2264 
Q 1234 2150 1697 2047 
L 1894 2003 
Q 2506 1872 2764 1633 
Q 3022 1394 3022 966 
Q 3022 478 2636 193 
Q 2250 -91 1575 -91 
Q 1294 -91 989 -36 
Q 684 19 347 128 
L 347 722 
Q 666 556 975 473 
Q 1284 391 1588 391 
Q 1994 391 2212 530 
Q 2431 669 2431 922 
Q 2431 1156 2273 1281 
Q 2116 1406 1581 1522 
L 1381 1569 
Q 847 1681 609 1914 
Q 372 2147 372 2553 
Q 372 3047 722 3315 
Q 1072 3584 1716 3584 
Q 2034 3584 2315 3537 
Q 2597 3491 2834 3397 
z
" transform="scale(0.015625)"/>
       <path id="DejaVuSans-74" d="M 1172 4494 
L 1172 3500 
L 2356 3500 
L 2356 3053 
L 1172 3053 
L 1172 1153 
Q 1172 725 1289 603 
Q 1406 481 1766 481 
L 2356 481 
L 2356 0 
L 1766 0 
Q 1100 0 847 248 
Q 594 497 594 1153 
L 594 3053 
L 172 3053 
L 172 3500 
L 594 3500 
L 594 4494 
L 1172 4494 
z
" transform="scale(0.015625)"/>
       <path id="DejaVuSans-69" d="M 603 3500 
L 1178 3500 
L 1178 0 
L 603 0 
L 603 3500 
z
M 603 4863 
L 1178 4863 
L 1178 4134 
L 603 4134 
L 603 4863 
z
" transform="scale(0.015625)"/>
       <path id="DejaVuSans-6d" d="M 3328 2828 
Q 3544 3216 3844 3400 
Q 4144 3584 4550 3584 
Q 5097 3584 5394 3201 
Q 5691 2819 5691 2113 
L 5691 0 
L 5113 0 
L 5113 2094 
Q 5113 2597 4934 2840 
Q 4756 3084 4391 3084 
Q 3944 3084 3684 2787 
Q 3425 2491 3425 1978 
L 3425 0 
L 2847 0 
L 2847 2094 
Q 2847 2600 2669 2842 
Q 2491 3084 2119 3084 
Q 1678 3084 1418 2786 
Q 1159 2488 1159 1978 
L 1159 0 
L 581 0 
L 581 3500 
L 1159 3500 
L 1159 2956 
Q 1356 3278 1631 3431 
Q 1906 3584 2284 3584 
Q 2666 3584 2933 3390 
Q 3200 3197 3328 2828 
z
" transform="scale(0.015625)"/>
       <path id="DejaVuSans-61" d="M 2194 1759 
Q 1497 1759 1228 1600 
Q 959 1441 959 1056 
Q 959 750 1161 570 
Q 1363 391 1709 391 
Q 2188 391 2477 730 
Q 2766 1069 2766 1631 
L 2766 1759 
L 2194 1759 
z
M 3341 1997 
L 3341 0 
L 2766 0 
L 2766 531 
Q 2569 213 2275 61 
Q 1981 -91 1556 -91 
Q 1019 -91 701 211 
Q 384 513 384 1019 
Q 384 1609 779 1909 
Q 1175 2209 1959 2209 
L 2766 2209 
L 2766 2266 
Q 2766 2663 2505 2880 
Q 2244 3097 1772 3097 
Q 1472 3097 1187 3025 
Q 903 2953 641 2809 
L 641 3341 
Q 956 3463 1253 3523 
Q 1550 3584 1831 3584 
Q 2591 3584 2966 3190 
Q 3341 2797 3341 1997 
z
" transform="scale(0.015625)"/>
       <path id="DejaVuSans-65" d="M 3597 1894 
L 3597 1613 
L 953 1613 
Q 991 1019 1311 708 
Q 1631 397 2203 397 
Q 2534 397 2845 478 
Q 3156 559 3463 722 
L 3463 178 
Q 3153 47 2828 -22 
Q 2503 -91 2169 -91 
Q 1331 -91 842 396 
Q 353 884 353 1716 
Q 353 2575 817 3079 
Q 1281 3584 2069 3584 
Q 2775 3584 3186 3129 
Q 3597 2675 3597 1894 
z
M 3022 2063 
Q 3016 2534 2758 2815 
Q 2500 3097 2075 3097 
Q 1594 3097 1305 2825 
Q 1016 2553 972 2059 
L 3022 2063 
z
" transform="scale(0.015625)"/>
       <path id="DejaVuSans-64" d="M 2906 2969 
L 2906 4863 
L 3481 4863 
L 3481 0 
L 2906 0 
L 2906 525 
Q 2725 213 2448 61 
Q 2172 -91 1784 -91 
Q 1150 -91 751 415 
Q 353 922 353 1747 
Q 353 2572 751 3078 
Q 1150 3584 1784 3584 
Q 2172 3584 2448 3432 
Q 2725 3281 2906 2969 
z
M 947 1747 
Q 947 1113 1208 752 
Q 1469 391 1925 391 
Q 2381 391 2643 752 
Q 2906 1113 2906 1747 
Q 2906 2381 2643 2742 
Q 2381 3103 1925 3103 
Q 1469 3103 1208 2742 
Q 947 2381 947 1747 
z
" transform="scale(0.015625)"/>
       <path id="DejaVuSans-20" transform="scale(0.015625)"/>
       <path id="DejaVuSans-28" d="M 1984 4856 
Q 1566 4138 1362 3434 
Q 1159 2731 1159 2009 
Q 1159 1288 1364 580 
Q 1569 -128 1984 -844 
L 1484 -844 
Q 1016 -109 783 600 
Q 550 1309 550 2009 
Q 550 2706 781 3412 
Q 1013 4119 1484 4856 
L 1984 4856 
z
" transform="scale(0.015625)"/>
       <path id="DejaVuSans-6e" d="M 3513 2113 
L 3513 0 
L 2938 0 
L 2938 2094 
Q 2938 2591 2744 2837 
Q 2550 3084 2163 3084 
Q 1697 3084 1428 2787 
Q 1159 2491 1159 1978 
L 1159 0 
L 581 0 
L 581 3500 
L 1159 3500 
L 1159 2956 
Q 1366 3272 1645 3428 
Q 1925 3584 2291 3584 
Q 2894 3584 3203 3211 
Q 3513 2838 3513 2113 
z
" transform="scale(0.015625)"/>
       <path id="DejaVuSans-29" d="M 513 4856 
L 1013 4856 
Q 1481 4119 1714 3412 
Q 1947 2706 1947 2009 
Q 1947 1309 1714 600 
Q 1481 -109 1013 -844 
L 513 -844 
Q 928 -128 1133 580 
Q 1338 1288 1338 2009 
Q 1338 2731 1133 3434 
Q 928 4138 513 4856 
z
" transform="scale(0.015625)"/>
      </defs>
      <use xlink:href="#DejaVuSans-45"/>
      <use xlink:href="#DejaVuSans-73" transform="translate(63.183594 0)"/>
      <use xlink:href="#DejaVuSans-74" transform="translate(115.283203 0)"/>
      <use xlink:href="#DejaVuSans-69" transform="translate(154.492188 0)"/>
      <use xlink:href="#DejaVuSans-6d" transform="translate(182.275391 0)"/>
      <use xlink:href="#DejaVuSans-61" transform="translate(279.6875 0)"/>
      <use xlink:href="#DejaVuSans-74" transform="translate(340.966797 0)"/>
      <use xlink:href="#DejaVuSans-65" transform="translate(380.175781 0)"/>
      <use xlink:href="#DejaVuSans-64" transform="translate(441.699219 0)"/>
      <use xlink:href="#DejaVuSans-20" transform="translate(505.175781 0)"/>
      <use xlink:href="#DejaVuSans-65" transform="translate(536.962891 0)"/>
      <use xlink:href="#DejaVuSans-64" transform="translate(598.486328 0)"/>
      <use xlink:href="#DejaVuSans-69" transform="translate(661.962891 0)"/>
      <use xlink:href="#DejaVuSans-74" transform="translate(689.746094 0)"/>
      <use xlink:href="#DejaVuSans-20" transform="translate(728.955078 0)"/>
      <use xlink:href="#DejaVuSans-74" transform="translate(760.742188 0)"/>
      <use xlink:href="#DejaVuSans-69" transform="translate(799.951172 0)"/>
      <use xlink:href="#DejaVuSans-6d" transform="translate(827.734375 0)"/>
      <use xlink:href="#DejaVuSans-65" transform="translate(925.146484 0)"/>
      <use xlink:href="#DejaVuSans-20" transform="translate(986.669922 0)"/>
      <use xlink:href="#DejaVuSans-28" transform="translate(1018.457031 0)"/>
      <use xlink:href="#DejaVuSans-6d" transform="translate(1057.470703 0)"/>
      <use xlink:href="#DejaVuSans-69" transform="translate(1154.882812 0)"/>
      <use xlink:href="#DejaVuSans-6e" transform="translate(1182.666016 0)"/>
      <use xlink:href="#DejaVuSans-29" transform="translate(1246.044922 0)"/>
     </g>
     <!-- (breaks removed, few-edit cells removed) -->
     <g transform="translate(93.975781 201.850375) scale(0.1 -0.1)">
      <defs>
       <path id="DejaVuSans-62" d="M 3116 1747 
Q 3116 2381 2855 2742 
Q 2594 3103 2138 3103 
Q 1681 3103 1420 2742 
Q 1159 2381 1159 1747 
Q 1159 1113 1420 752 
Q 1681 391 2138 391 
Q 2594 391 2855 752 
Q 3116 1113 3116 1747 
z
M 1159 2969 
Q 1341 3281 1617 3432 
Q 1894 3584 2278 3584 
Q 2916 3584 3314 3078 
Q 3713 2572 3713 1747 
Q 3713 922 3314 415 
Q 2916 -91 2278 -91 
Q 1894 -91 1617 61 
Q 1341 213 1159 525 
L 1159 0 
L 581 0 
L 581 4863 
L 1159 4863 
L 1159 2969 
z
" transform="scale(0.015625)"/>
       <path id="DejaVuSans-72" d="M 2631 2963 
Q 2534 3019 2420 3045 
Q 2306 3072 2169 3072 
Q 1681 3072 1420 2755 
Q 1159 2438 1159 1844 
L 1159 0 
L 581 0 
L 581 3500 
L 1159 3500 
L 1159 2956 
Q 1341 3275 1631 3429 
Q 1922 3584 2338 3584 
Q 2397 3584 2469 3576 
Q 2541 3569 2628 3553 
L 2631 2963 
z
" transform="scale(0.015625)"/>
       <path id="DejaVuSans-6b" d="M 581 4863 
L 1159 4863 
L 1159 1991 
L 2875 3500 
L 3609 3500 
L 1753 1863 
L 3688 0 
L 2938 0 
L 1159 1709 
L 1159 0 
L 581 0 
L 581 4863 
z
" transform="scale(0.015625)"/>
       <path id="DejaVuSans-6f" d="M 1959 3097 
Q 1497 3097 1228 2736 
Q 959 2375 959 1747 
Q 959 1119 1226 758 
Q 1494 397 1959 397 
Q 2419 397 2687 759 
Q 2956 1122 2956 1747 
Q 2956 2369 2687 2733 
Q 2419 3097 1959 3097 
z
M 1959 3584 
Q 2709 3584 3137 3096 
Q 3566 2609 3566 1747 
Q 3566 888 3137 398 
Q 2709 -91 1959 -91 
Q 1206 -91 779 398 
Q 353 888 353 1747 
Q 353 2609 779 3096 
Q 1206 3584 1959 3584 
z
" transform="scale(0.015625)"/>
       <path id="DejaVuSans-76" d="M 191 3500 
L 800 3500 
L 1894 563 
L 2988 3500 
L 3597 3500 
L 2284 0 
L 1503 0 
L 191 3500 
z
" transform="scale(0.015625)"/>
       <path id="DejaVuSans-2c" d="M 750 794 
L 1409 794 
L 1409 256 
L 897 -744 
L 494 -744 
L 750 256 
L 750 794 
z
" transform="scale(0.015625)"/>
       <path id="DejaVuSans-66" d="M 2375 4863 
L 2375 4384 
L 1825 4384 
Q 1516 4384 1395 4259 
Q 1275 4134 1275 3809 
L 1275 3500 
L 2222 3500 
L 2222 3053 
L 1275 3053 
L 1275 0 
L 697 0 
L 697 3053 
L 147 3053 
L 147 3500 
L 697 3500 
L 697 3744 
Q 697 4328 969 4595 
Q 1241 4863 1831 4863 
L 2375 4863 
z
" transform="scale(0.015625)"/>
       <path id="DejaVuSans-77" d="M 269 3500 
L 844 3500 
L 1563 769 
L 2278 3500 
L 2956 3500 
L 3675 769 
L 4391 3500 
L 4966 3500 
L 4050 0 
L 3372 0 
L 2619 2869 
L 1863 0 
L 1184 0 
L 269 3500 
z
" transform="scale(0.015625)"/>
       <path id="DejaVuSans-2d" d="M 313 2009 
L 1997 2009 
L 1997 1497 
L 313 1497 
L 313 2009 
z
" transform="scale(0.015625)"/>
       <path id="DejaVuSans-63" d="M 3122 3366 
L 3122 2828 
Q 2878 2963 2633 3030 
Q 2388 3097 2138 3097 
Q 1578 3097 1268 2742 
Q 959 2388 959 1747 
Q 959 1106 1268 751 
Q 1578 397 2138 397 
Q 2388 397 2633 464 
Q 2878 531 3122 666 
L 3122 134 
Q 2881 22 2623 -34 
Q 2366 -91 2075 -91 
Q 1284 -91 818 406 
Q 353 903 353 1747 
Q 353 2603 823 3093 
Q 1294 3584 2113 3584 
Q 2378 3584 2631 3529 
Q 2884 3475 3122 3366 
z
" transform="scale(0.015625)"/>
       <path id="DejaVuSans-6c" d="M 603 4863 
L 1178 4863 
L 1178 0 
L 603 0 
L 603 4863 
z
" transform="scale(0.015625)"/>
      </defs>
      <use xlink:href="#DejaVuSans-28"/>
      <use xlink:href="#DejaVuSans-62" transform="translate(39.013672 0)"/>
      <use xlink:href="#DejaVuSans-72" transform="translate(102.490234 0)"/>
      <use xlink:href="#DejaVuSans-65" transform="translate(141.353516 0)"/>
      <use xlink:href="#DejaVuSans-61" transform="translate(202.876953 0)"/>
      <use xlink:href="#DejaVuSans-6b" transform="translate(264.15625 0)"/>
      <use xlink:href="#DejaVuSans-73" transform="translate(322.066406 0)"/>
      <use xlink:href="#DejaVuSans-20" transform="translate(374.166016 0)"/>
      <use xlink:href="#DejaVuSans-72" transform="translate(405.953125 0)"/>
      <use xlink:href="#DejaVuSans-65" transform="translate(444.816406 0)"/>
      <use xlink:href="#DejaVuSans-6d" transform="translate(506.339844 0)"/>
      <use xlink:href="#DejaVuSans-6f" transform="translate(603.751953 0)"/>
      <use xlink:href="#DejaVuSans-76" transform="translate(664.933594 0)"/>
      <use xlink:href="#DejaVuSans-65" transform="translate(724.113281 0)"/>
      <use xlink:href="#DejaVuSans-64" transform="translate(785.636719 0)"/>
      <use xlink:href="#DejaVuSans-2c" transform="translate(849.113281 0)"/>
      <use xlink:href="#DejaVuSans-20" transform="translate(880.900391 0)"/>
      <use xlink:href="#DejaVuSans-66" transform="translate(912.6875 0)"/>
      <use xlink:href="#DejaVuSans-65" transform="translate(947.892578 0)"/>
      <use xlink:href="#DejaVuSans-77" transform="translate(1009.416016 0)"/>
      <use xlink:href="#DejaVuSans-2d" transform="translate(1091.203125 0)"/>
      <use xlink:href="#DejaVuSans-65" transform="translate(1127.287109 0)"/>
      <use xlink:href="#DejaVuSans-64" transform="translate(1188.810547 0)"/>
      <use xlink:href="#DejaVuSans-69" transform="translate(1252.287109 0)"/>
      <use xlink:href="#DejaVuSans-74" transform="translate(1280.070312 0)"/>
      <use xlink:href="#DejaVuSans-20" transform="translate(1319.279297 0)"/>
      <use xlink:href="#DejaVuSans-63" transform="translate(1351.066406 0)"/>
      <use xlink:href="#DejaVuSans-65" transform="translate(1406.046875 0)"/>
      <use xlink:href="#DejaVuSans-6c" transform="translate(1467.570312 0)"/>
      <use xlink:href="#DejaVuSans-6c" transform="translate(1495.353516 0)"/>
      <use xlink:href="#DejaVuSans-73" transform="translate(1523.136719 0)"/>
      <use xlink:href="#DejaVuSans-20" transform="translate(1575.236328 0)"/>
      <use xlink:href="#DejaVuSans-72" transform="translate(1607.023438 0)"/>
      <use xlink:href="#DejaVuSans-65" transform="translate(1645.886719 0)"/>
      <use xlink:href="#DejaVuSans-6d" transform="translate(1707.410156 0)"/>
      <use xlink:href="#DejaVuSans-6f" transform="translate(1804.822266 0)"/>
      <use xlink:href="#DejaVuSans-76" transform="translate(1866.003906 0)"/>
      <use xlink:href="#DejaVuSans-65" transform="translate(1925.183594 0)"/>
      <use xlink:href="#DejaVuSans-64" transform="translate(1986.707031 0)"/>
      <use xlink:href="#DejaVuSans-29" transform="translate(2050.183594 0)"/>
     </g>
    </g>
   </g>
   <g id="matplotlib.axis_2">
    <g id="ytick_1">
     <g id="line2d_7">
      <defs>
       <path id="me13f8cb5e0" d="M 0 0 
L -3.5 0 
" style="stroke: #000000; stroke-width: 0.8"/>
      </defs>
      <g>
       <use xlink:href="#me13f8cb5e0" x="57.17" y="162.376" style="stroke: #000000; stroke-width: 0.8"/>
      </g>
     </g>
     <g id="text_8">
      <!-- 0 -->
      <g transform="translate(43.8075 166.175219) scale(0.1 -0.1)">
       <use xlink:href="#DejaVuSans-30"/>
      </g>
     </g>
    </g>
    <g id="ytick_2">
     <g id="line2d_8">
      <g>
       <use xlink:href="#me13f8cb5e0" x="57.17" y="137.094372" style="stroke: #000000; stroke-width: 0.8"/>
      </g>
     </g>
     <g id="text_9">
      <!-- 500 -->
      <g transform="translate(31.0825 140.893591) scale(0.1 -0.1)">
       <defs>
        <path id="DejaVuSans-35" d="M 691 4666 
L 3169 4666 
L 3169 4134 
L 1269 4134 
L 1269 2991 
Q 1406 3038 1543 3061 
Q 1681 3084 1819 3084 
Q 2600 3084 3056 2656 
Q 3513 2228 3513 1497 
Q 3513 744 3044 326 
Q 2575 -91 1722 -91 
Q 1428 -91 1123 -41 
Q 819 9 494 109 
L 494 744 
Q 775 591 1075 516 
Q 1375 441 1709 441 
Q 2250 441 2565 725 
Q 2881 1009 2881 1497 
Q 2881 1984 2565 2268 
Q 2250 2553 1709 2553 
Q 1456 2553 1204 2497 
Q 953 2441 691 2322 
L 691 4666 
z
" transform="scale(0.015625)"/>
       </defs>
       <use xlink:href="#DejaVuSans-35"/>
       <use xlink:href="#DejaVuSans-30" transform="translate(63.623047 0)"/>
       <use xlink:href="#DejaVuSans-30" transform="translate(127.246094 0)"/>
      </g>
     </g>
    </g>
    <g id="ytick_3">
     <g id="line2d_9">
      <g>
       <use xlink:href="#me13f8cb5e0" x="57.17" y="111.812744" style="stroke: #000000; stroke-width: 0.8"/>
      </g>
     </g>
     <g id="text_10">
      <!-- 1000 -->
      <g transform="translate(24.72 115.611963) scale(0.1 -0.1)">
       <use xlink:href="#DejaVuSans-31"/>
       <use xlink:href="#DejaVuSans-30" transform="translate(63.623047 0)"/>
       <use xlink:href="#DejaVuSans-30" transform="translate(127.246094 0)"/>
       <use xlink:href="#DejaVuSans-30" transform="translate(190.869141 0)"/>
      </g>
     </g>
    </g>
    <g id="ytick_4">
     <g id="line2d_10">
      <g>
       <use xlink:href="#me13f8cb5e0" x="57.17" y="86.531116" style="stroke: #000000; stroke-width: 0.8"/>
      </g>
     </g>
     <g id="text_11">
      <!-- 1500 -->
      <g transform="translate(24.72 90.330335) scale(0.1 -0.1)">
       <use xlink:href="#DejaVuSans-31"/>
       <use xlink:href="#DejaVuSans-35" transform="translate(63.623047 0)"/>
       <use xlink:href="#DejaVuSans-30" transform="translate(127.246094 0)"/>
       <use xlink:href="#DejaVuSans-30" transform="translate(190.869141 0)"/>
      </g>
     </g>
    </g>
    <g id="ytick_5">
     <g id="line2d_11">
      <g>
       <use xlink:href="#me13f8cb5e0" x="57.17" y="61.249488" style="stroke: #000000; stroke-width: 0.8"/>
      </g>
     </g>
     <g id="text_12">
      <!-- 2000 -->
      <g transform="translate(24.72 65.048707) scale(0.1 -0.1)">
       <use xlink:href="#DejaVuSans-32"/>
       <use xlink:href="#DejaVuSans-30" transform="translate(63.623047 0)"/>
       <use xlink:href="#DejaVuSans-30" transform="translate(127.246094 0)"/>
       <use xlink:href="#DejaVuSans-30" transform="translate(190.869141 0)"/>
      </g>
     </g>
    </g>
    <g id="ytick_6">
     <g id="line2d_12">
      <g>
       <use xlink:href="#me13f8cb5e0" x="57.17" y="35.967861" style="stroke: #000000; stroke-width: 0.8"/>
      </g>
     </g>
     <g id="text_13">
      <!-- 2500 -->
      <g transform="translate(24.72 39.767079) scale(0.1 -0.1)">
       <use xlink:href="#DejaVuSans-32"/>
       <use xlink:href="#DejaVuSans-35" transform="translate(63.623047 0)"/>
       <use xlink:href="#DejaVuSans-30" transform="translate(127.246094 0)"/>
       <use xlink:href="#DejaVuSans-30" transform="translate(190.869141 0)"/>
      </g>
     </g>
    </g>
    <g id="text_14">
     <!-- Cells -->
     <g transform="translate(18.640313 98.538781) rotate(-90) scale(0.1 -0.1)">
      <defs>
       <path id="DejaVuSans-43" d="M 4122 4306 
L 4122 3641 
Q 3803 3938 3442 4084 
Q 3081 4231 2675 4231 
Q 1875 4231 1450 3742 
Q 1025 3253 1025 2328 
Q 1025 1406 1450 917 
Q 1875 428 2675 428 
Q 3081 428 3442 575 
Q 3803 722 4122 1019 
L 4122 359 
Q 3791 134 3420 21 
Q 3050 -91 2638 -91 
Q 1578 -91 968 557 
Q 359 1206 359 2328 
Q 359 3453 968 4101 
Q 1578 4750 2638 4750 
Q 3056 4750 3426 4639 
Q 3797 4528 4122 4306 
z
" transform="scale(0.015625)"/>
      </defs>
      <use xlink:href="#DejaVuSans-43"/>
      <use xlink:href="#DejaVuSans-65" transform="translate(69.824219 0)"/>
      <use xlink:href="#DejaVuSans-6c" transform="translate(131.347656 0)"/>
      <use xlink:href="#DejaVuSans-6c" transform="translate(159.130859 0)"/>
      <use xlink:href="#DejaVuSans-73" transform="translate(186.914062 0)"/>
     </g>
    </g>
   </g>
   <g id="patch_123">
    <path d="M 57.17 162.376 
L 57.17 10.8 
" style="fill: none; stroke: #000000; stroke-width: 0.8; stroke-linejoin: miter; stroke-linecap: square"/>
   </g>
   <g id="patch_124">
    <path d="M 57.17 162.376 
L 339.705 162.376 
" style="fill: none; stroke: #000000; stroke-width: 0.8; stroke-linejoin: miter; stroke-linecap: square"/>
   </g>
   <g id="legend_1">
    <g id="patch_125">
     <path d="M 270.239375 27.398438 
L 290.239375 27.398438 
L 290.239375 20.398438 
L 270.239375 20.398438 
z
" style="fill: #109e71"/>
    </g>
    <g id="text_15">
     <!-- BC -->
     <g transform="translate(298.239375 27.398438) scale(0.1 -0.1)">
      <defs>
       <path id="DejaVuSans-42" d="M 1259 2228 
L 1259 519 
L 2272 519 
Q 2781 519 3026 730 
Q 3272 941 3272 1375 
Q 3272 1813 3026 2020 
Q 2781 2228 2272 2228 
L 1259 2228 
z
M 1259 4147 
L 1259 2741 
L 2194 2741 
Q 2656 2741 2882 2914 
Q 3109 3088 3109 3444 
Q 3109 3797 2882 3972 
Q 2656 4147 2194 4147 
L 1259 4147 
z
M 628 4666 
L 2241 4666 
Q 2963 4666 3353 4366 
Q 3744 4066 3744 3513 
Q 3744 3084 3544 2831 
Q 3344 2578 2956 2516 
Q 3422 2416 3680 2098 
Q 3938 1781 3938 1306 
Q 3938 681 3513 340 
Q 3088 0 2303 0 
L 628 0 
L 628 4666 
z
" transform="scale(0.015625)"/>
      </defs>
      <use xlink:href="#DejaVuSans-42"/>
      <use xlink:href="#DejaVuSans-43" transform="translate(66.853516 0)"/>
     </g>
    </g>
    <g id="patch_126">
     <path d="M 270.239375 42.076563 
L 290.239375 42.076563 
L 290.239375 35.076563 
L 270.239375 35.076563 
z
" style="fill: #1d74b9"/>
    </g>
    <g id="text_16">
     <!-- NF AC -->
     <g transform="translate(298.239375 42.076563) scale(0.1 -0.1)">
      <defs>
       <path id="DejaVuSans-4e" d="M 628 4666 
L 1478 4666 
L 3547 763 
L 3547 4666 
L 4159 4666 
L 4159 0 
L 3309 0 
L 1241 3903 
L 1241 0 
L 628 0 
L 628 4666 
z
" transform="scale(0.015625)"/>
       <path id="DejaVuSans-46" d="M 628 4666 
L 3309 4666 
L 3309 4134 
L 1259 4134 
L 1259 2759 
L 3109 2759 
L 3109 2228 
L 1259 2228 
L 1259 0 
L 628 0 
L 628 4666 
z
" transform="scale(0.015625)"/>
       <path id="DejaVuSans-41" d="M 2188 4044 
L 1331 1722 
L 3047 1722 
L 2188 4044 
z
M 1831 4666 
L 2547 4666 
L 4325 0 
L 3669 0 
L 3244 1197 
L 1141 1197 
L 716 0 
L 50 0 
L 1831 4666 
z
" transform="scale(0.015625)"/>
      </defs>
      <use xlink:href="#DejaVuSans-4e"/>
      <use xlink:href="#DejaVuSans-46" transform="translate(74.804688 0)"/>
      <use xlink:href="#DejaVuSans-20" transform="translate(132.324219 0)"/>
      <use xlink:href="#DejaVuSans-41" transform="translate(164.111328 0)"/>
      <use xlink:href="#DejaVuSans-43" transform="translate(230.769531 0)"/>
     </g>
    </g>
    <g id="patch_127">
     <path d="M 270.239375 56.754688 
L 290.239375 56.754688 
L 290.239375 49.754688 
L 270.239375 49.754688 
z
" style="fill: #32a9de"/>
    </g>
    <g id="text_17">
     <!-- MF AC -->
     <g transform="translate(298.239375 56.754688) scale(0.1 -0.1)">
      <defs>
       <path id="DejaVuSans-4d" d="M 628 4666 
L 1569 4666 
L 2759 1491 
L 3956 4666 
L 4897 4666 
L 4897 0 
L 4281 0 
L 4281 4097 
L 3078 897 
L 2444 897 
L 1241 4097 
L 1241 0 
L 628 0 
L 628 4666 
z
" transform="scale(0.015625)"/>
      </defs>
      <use xlink:href="#DejaVuSans-4d"/>
      <use xlink:href="#DejaVuSans-46" transform="translate(86.279297 0)"/>
      <use xlink:href="#DejaVuSans-20" transform="translate(143.798828 0)"/>
      <use xlink:href="#DejaVuSans-41" transform="translate(175.585938 0)"/>
      <use xlink:href="#DejaVuSans-43" transform="translate(242.244141 0)"/>
     </g>
    </g>
    <g id="patch_128">
     <path d="M 270.239375 71.432813 
L 290.239375 71.432813 
L 290.239375 64.432813 
L 270.239375 64.432813 
z
" style="fill: #b1def2"/>
    </g>
    <g id="text_18">
     <!-- WF AC -->
     <g transform="translate(298.239375 71.432813) scale(0.1 -0.1)">
      <defs>
       <path id="DejaVuSans-57" d="M 213 4666 
L 850 4666 
L 1831 722 
L 2809 4666 
L 3519 4666 
L 4500 722 
L 5478 4666 
L 6119 4666 
L 4947 0 
L 4153 0 
L 3169 4050 
L 2175 0 
L 1381 0 
L 213 4666 
z
" transform="scale(0.015625)"/>
      </defs>
      <use xlink:href="#DejaVuSans-57"/>
      <use xlink:href="#DejaVuSans-46" transform="translate(98.876953 0)"/>
      <use xlink:href="#DejaVuSans-20" transform="translate(156.396484 0)"/>
      <use xlink:href="#DejaVuSans-41" transform="translate(188.183594 0)"/>
      <use xlink:href="#DejaVuSans-43" transform="translate(254.841797 0)"/>
     </g>
    </g>
    <g id="patch_129">
     <path d="M 270.239375 86.110938 
L 290.239375 86.110938 
L 290.239375 79.110938 
L 270.239375 79.110938 
z
" style="fill: #da3b3c"/>
    </g>
    <g id="text_19">
     <!-- RGC -->
     <g transform="translate(298.239375 86.110938) scale(0.1 -0.1)">
      <defs>
       <path id="DejaVuSans-52" d="M 2841 2188 
Q 3044 2119 3236 1894 
Q 3428 1669 3622 1275 
L 4263 0 
L 3584 0 
L 2988 1197 
Q 2756 1666 2539 1819 
Q 2322 1972 1947 1972 
L 1259 1972 
L 1259 0 
L 628 0 
L 628 4666 
L 2053 4666 
Q 2853 4666 3247 4331 
Q 3641 3997 3641 3322 
Q 3641 2881 3436 2590 
Q 3231 2300 2841 2188 
z
M 1259 4147 
L 1259 2491 
L 2053 2491 
Q 2509 2491 2742 2702 
Q 2975 2913 2975 3322 
Q 2975 3731 2742 3939 
Q 2509 4147 2053 4147 
L 1259 4147 
z
" transform="scale(0.015625)"/>
       <path id="DejaVuSans-47" d="M 3809 666 
L 3809 1919 
L 2778 1919 
L 2778 2438 
L 4434 2438 
L 4434 434 
Q 4069 175 3628 42 
Q 3188 -91 2688 -91 
Q 1594 -91 976 548 
Q 359 1188 359 2328 
Q 359 3472 976 4111 
Q 1594 4750 2688 4750 
Q 3144 4750 3555 4637 
Q 3966 4525 4313 4306 
L 4313 3634 
Q 3963 3931 3569 4081 
Q 3175 4231 2741 4231 
Q 1884 4231 1454 3753 
Q 1025 3275 1025 2328 
Q 1025 1384 1454 906 
Q 1884 428 2741 428 
Q 3075 428 3337 486 
Q 3600 544 3809 666 
z
" transform="scale(0.015625)"/>
      </defs>
      <use xlink:href="#DejaVuSans-52"/>
      <use xlink:href="#DejaVuSans-47" transform="translate(69.482422 0)"/>
      <use xlink:href="#DejaVuSans-43" transform="translate(146.972656 0)"/>
     </g>
    </g>
   </g>
  </g>
 </g>
 <defs>
  <clipPath id="p55bf2e3203">
   <rect x="57.17" y="10.8" width="282.535" height="151.576"/>
  </clipPath>
 </defs>
</svg>
